<svg xmlns="http://www.w3.org/2000/svg" viewBox="0 0 176 40">
  <ellipse cx="88" cy="31" rx="60" ry="7" fill="#356a43" opacity=".22"/>
  <ellipse cx="88" cy="21" rx="74" ry="16" fill="#d8ffd6" opacity=".42"/>
  <path d="M10 26c20-20 55-28 80-22 36 9 61 17 76 22-20 7-45 11-74 11-36 0-63-4-82-11z" fill="#8ee8a2" stroke="#2d6d45" stroke-width="3" stroke-linejoin="round"/>
  <path d="M21 25c19-12 45-18 70-18 22 0 48 5 67 16" fill="none" stroke="#f7fff6" stroke-width="3" stroke-linecap="round"/>
  <path d="M28 27c23-5 47-6 72-3" fill="none" stroke="#2d6d45" stroke-width="2.4" stroke-linecap="round"/>
  <path d="M86 10c-6 6-10 14-12 22" fill="none" stroke="#f6fff7" stroke-width="2.1" stroke-linecap="round"/>
  <path d="M88 9c3 8 4 17 2 25" fill="none" stroke="#3b8a58" stroke-width="2.2" stroke-linecap="round"/>
  <path d="M111 14c-6 6-9 12-10 18M62 14c7 6 11 12 12 18" fill="none" stroke="#52a56c" stroke-width="1.8" stroke-linecap="round"/>
  <path d="M42 8l4 4M132 7l-4 4M88 4v5" fill="none" stroke="#f6ffdb" stroke-width="2.2" stroke-linecap="round"/>
</svg>
