<svg xmlns="http://www.w3.org/2000/svg" viewBox="0 0 176 40">
  <ellipse cx="88" cy="31" rx="60" ry="7" fill="#3d4636" opacity=".16"/>
  <path d="M10 26c20-20 55-28 80-22 36 9 61 17 76 22-20 7-45 11-74 11-36 0-63-4-82-11z" fill="#a1bd8a" stroke="#5d6e46" stroke-width="3" stroke-linejoin="round"/>
  <path d="M25 26c18-7 44-9 68-6" fill="none" stroke="#d7e3c8" stroke-width="2.8" stroke-linecap="round"/>
  <path d="M101 16c9 3 18 8 25 13" fill="none" stroke="#5d6e46" stroke-width="2.2" stroke-linecap="round"/>
  <path d="M84 12c-4 5-7 11-8 18" fill="none" stroke="#dce6cf" stroke-width="1.9" stroke-linecap="round"/>
  <path d="M88 12c2 6 3 13 2 20" fill="none" stroke="#6d7a58" stroke-width="2" stroke-linecap="round"/>
  <path d="M109 17c-5 5-7 9-8 15M64 17c6 5 8 9 9 15" fill="none" stroke="#7d8c68" stroke-width="1.6" stroke-linecap="round"/>
</svg>
