<svg xmlns="http://www.w3.org/2000/svg" viewBox="0 0 64 64">
  <ellipse cx="32" cy="54" rx="13" ry="5" fill="#f5bf5f" opacity=".28"/>
  <path d="M18 38c-5 3-7 8-5 11 2 4 8 4 14 1l3-7-12-5z" fill="#ffe38d" stroke="#9b5c1f" stroke-width="2.5" stroke-linejoin="round"/>
  <ellipse cx="32" cy="38" rx="14" ry="11" fill="#f7b733" stroke="#9b5c1f" stroke-width="3"/>
  <path d="M22 20 27 10l6 10" fill="#f7b733" stroke="#9b5c1f" stroke-width="3" stroke-linejoin="round"/>
  <path d="M37 20 42 10l6 10" fill="#f7b733" stroke="#9b5c1f" stroke-width="3" stroke-linejoin="round"/>
  <ellipse cx="32" cy="27" rx="13" ry="11" fill="#f8bd47" stroke="#9b5c1f" stroke-width="3"/>
  <ellipse cx="27" cy="22" rx="6" ry="3.4" fill="#fff6c8" opacity=".3"/>
  <path d="M32 17l2.2 3-2.2 3-2.2-3z" fill="#fff8cf" opacity=".72"/>
  <ellipse cx="32" cy="29" rx="8" ry="6" fill="#fff7dd"/>
  <path d="M29 36c1.2 2 2 2.8 3 2.8s1.8-.8 3-2.8" fill="none" stroke="#fffdf2" stroke-opacity=".82" stroke-width="1.6" stroke-linecap="round"/>
  <circle cx="26" cy="26" r="1.9" fill="#14324d"/>
  <circle cx="38" cy="26" r="1.9" fill="#14324d"/>
  <circle cx="32" cy="30" r="1.8" fill="#9b5c1f"/>
  <path d="M29 33c2 2 4 2 6 0" fill="none" stroke="#9b5c1f" stroke-width="2" stroke-linecap="round"/>
  <ellipse cx="32" cy="41.5" rx="7" ry="3.2" fill="#fff2c8" opacity=".16"/>
  <circle cx="51" cy="18" r="3.6" fill="#ffe39b"/>
  <path d="M51 11v4M51 21v4M44 18h4M54 18h4" fill="none" stroke="#ffd166" stroke-width="2.2" stroke-linecap="round"/>
</svg>
