<svg xmlns="http://www.w3.org/2000/svg" viewBox="0 0 64 64">
  <g transform="translate(64 0) scale(-1 1)">
    <ellipse cx="32" cy="54" rx="13" ry="5" fill="#f5bf5f" opacity=".28"/>
    <path d="M46 33c9 3 13 9 11 15-2 5-9 6-17 2l-4-8 10-9z" fill="#ffe38d" stroke="#9b5c1f" stroke-width="2.5" stroke-linejoin="round"/>
    <ellipse cx="33" cy="39" rx="13" ry="10" fill="#f7b733" stroke="#9b5c1f" stroke-width="3"/>
    <ellipse cx="26" cy="28" rx="11" ry="9" fill="#f8bd47" stroke="#9b5c1f" stroke-width="3"/>
    <ellipse cx="22" cy="24" rx="5" ry="3" fill="#fff6c8" opacity=".26"/>
    <path d="M31 21l2 2.6-2 2.6-2-2.6z" fill="#fff8cf" opacity=".72"/>
    <path d="M21 19 23 10l8 7" fill="#f7b733" stroke="#9b5c1f" stroke-width="3" stroke-linejoin="round"/>
    <path d="M31 20 37 10l5 9" fill="#f7b733" stroke="#9b5c1f" stroke-width="3" stroke-linejoin="round"/>
    <ellipse cx="22" cy="30" rx="6.8" ry="5.2" fill="#fff7dd"/>
    <path d="M22 35c1.5 1.7 3.4 2.3 5.2 1.8" fill="none" stroke="#fffdf2" stroke-opacity=".8" stroke-width="1.5" stroke-linecap="round"/>
    <circle cx="20" cy="27" r="1.9" fill="#14324d"/>
    <circle cx="15" cy="31" r="1.7" fill="#9b5c1f"/>
    <path d="M16 34c2 1.5 4 1.5 6 0" fill="none" stroke="#9b5c1f" stroke-width="2" stroke-linecap="round"/>
    <ellipse cx="33" cy="42" rx="6" ry="2.6" fill="#fff2c8" opacity=".14"/>
    <circle cx="48" cy="20" r="3.4" fill="#ffe39b"/>
    <path d="M48 14v4M48 23v4M42 20h3.5M51 20h3.5" fill="none" stroke="#ffd166" stroke-width="2" stroke-linecap="round"/>
  </g>
</svg>
