<svg xmlns="http://www.w3.org/2000/svg" viewBox="0 0 64 64">
  
    <defs>
      <radialGradient id="firefly-pickup-glow" cx=".5" cy=".38" r=".84">
        <stop offset="0" stop-color="#faffff"/>
        <stop offset=".42" stop-color="#c3f8ee" stop-opacity=".78"/>
        <stop offset="1" stop-color="#c3f8ee" stop-opacity="0"/>
      </radialGradient>
      <linearGradient id="firefly-pickup-body" x1=".24" y1=".16" x2=".82" y2=".88">
        <stop offset="0" stop-color="#9ad7ff"/>
        <stop offset=".46" stop-color="#63a7ff"/>
        <stop offset="1" stop-color="#4855c9"/>
      </linearGradient>
      <linearGradient id="firefly-pickup-tail" x1=".5" y1="0" x2=".5" y2="1">
        <stop offset="0" stop-color="#f8ffba"/>
        <stop offset=".56" stop-color="#98f0b8"/>
        <stop offset="1" stop-color="#5fd2b5"/>
      </linearGradient>
    </defs>
    
  
    <ellipse cx="32" cy="56" rx="12.4" ry="4.2" fill="#9ad7ff" opacity=".22"/>
    <circle cx="32" cy="30" r="18" fill="url(#firefly-pickup-glow)" opacity=".2"/>
    <path d="M22 25c-7-6-13-1-12 7 6 2 11 0 16-4-2-1-3-2-4-3z" fill="#f8fdff" stroke="#a6cde9" stroke-width="2" stroke-linejoin="round" opacity=".86"/>
    <path d="M42 25c7-6 13-1 12 7-6 2-11 0-16-4 2-1 3-2 4-3z" fill="#f8fdff" stroke="#a6cde9" stroke-width="2" stroke-linejoin="round" opacity=".86"/>
    <ellipse cx="32" cy="30" rx="8.2" ry="8.8" fill="url(#firefly-pickup-body)" stroke="#3753a6" stroke-width="2.2" opacity=".58"/>
    <ellipse cx="32" cy="39" rx="7.3" ry="5.8" fill="url(#firefly-pickup-tail)" stroke="#4ca58e" stroke-width="2" opacity=".58"/>
    <path d="M29.2 21c-1.4-3.8-3.2-5.8-6-7.6M34.8 21c1.4-3.8 3.2-5.8 6-7.6" fill="none" stroke="#6f90ff" stroke-width="2" stroke-linecap="round"/>
    <circle cx="23.4" cy="13.8" r="1.3" fill="#d3fbff"/>
    <circle cx="40.6" cy="13.8" r="1.3" fill="#d3fbff"/>
    <path d="M46 18l1.7 2.4-1.7 2.4-1.7-2.4z" fill="#d1d5db"/>
    
</svg>
