<svg xmlns="http://www.w3.org/2000/svg" viewBox="0 0 64 64">
  <defs>
    <radialGradient id="lantern-heart-glow" cx=".5" cy=".4" r=".72">
      <stop offset="0" stop-color="#fff8ff" stop-opacity=".95"/>
      <stop offset=".58" stop-color="#ffe2fb" stop-opacity=".58"/>
      <stop offset="1" stop-color="#ffe2fb" stop-opacity="0"/>
    </radialGradient>
    <linearGradient id="lantern-heart-shell" x1=".2" y1=".12" x2=".8" y2=".88">
      <stop offset="0" stop-color="#ff90c8"/>
      <stop offset=".46" stop-color="#ff4fb1"/>
      <stop offset="1" stop-color="#d61f86"/>
    </linearGradient>
    <linearGradient id="lantern-heart-rainbow" x1="0" y1="0" x2="1" y2="0">
      <stop offset="0" stop-color="#ff8ec7"/>
      <stop offset=".18" stop-color="#ffa1f4"/>
      <stop offset=".38" stop-color="#ffd95f"/>
      <stop offset=".58" stop-color="#92f3b1"/>
      <stop offset=".78" stop-color="#5cd9ff"/>
      <stop offset="1" stop-color="#7f8dff"/>
    </linearGradient>
    <clipPath id="lantern-heart-clip">
      <path d="M32 52c-1.8 0-4.5-1.6-8.2-4.5C17.4 42.3 12 37 12 27.6 12 20.4 17 15 23.8 15c4 0 6.8 1.8 8.2 5 1.4-3.2 4.2-5 8.2-5C47 15 52 20.4 52 27.6c0 9.4-5.4 14.7-11.8 19.9C36.5 50.4 33.8 52 32 52z"/>
    </clipPath>
  </defs>
  <ellipse cx="32" cy="56" rx="13" ry="4.4" fill="#ff8dd4" opacity=".24"/>
  <circle cx="32" cy="31" r="19" fill="url(#lantern-heart-glow)"/>
  <path d="M32 52c-1.8 0-4.5-1.6-8.2-4.5C17.4 42.3 12 37 12 27.6 12 20.4 17 15 23.8 15c4 0 6.8 1.8 8.2 5 1.4-3.2 4.2-5 8.2-5C47 15 52 20.4 52 27.6c0 9.4-5.4 14.7-11.8 19.9C36.5 50.4 33.8 52 32 52z" fill="url(#lantern-heart-shell)" stroke="#b21673" stroke-width="3" stroke-linejoin="round"/>
  <g clip-path="url(#lantern-heart-clip)">
    <path d="M8 35c9-7 18-10 27-10 8.6 0 16.4 2.4 23.4 7.1l-3.8 9.7H15.5z" fill="url(#lantern-heart-rainbow)" opacity=".95"/>
    <path d="M17 43c6.6-5.4 12.8-8.1 18.7-8.1 5.3 0 10 1.3 14.2 4l-1.5 5.6H20.2z" fill="#fff4fb" opacity=".16"/>
  </g>
  <path d="M28 20c-4.2-1.5-8.2.1-10.1 3.8-2.2 4.4-1.1 8.8 3.7 13.7" fill="none" stroke="#ffd8ef" stroke-width="2.2" stroke-linecap="round" opacity=".92"/>
  <path d="M24 23c1.8-.9 3.9-.7 5.7.4" fill="none" stroke="#fff9ff" stroke-width="1.7" stroke-linecap="round" opacity=".92"/>
  <circle cx="24.8" cy="23.6" r="1.8" fill="#fff8ff" opacity=".95"/>
  <path d="M45 18l1.8 2.7-1.8 2.7-1.8-2.7zM15 35l1.8 2.7-1.8 2.7-1.8-2.7zM48 34l1.6 2.3-1.6 2.3-1.6-2.3z" fill="#fff9ff" opacity=".86"/>
  <path d="M39 12l2.1 3.1-2.1 3.1-2.1-3.1z" fill="#ffe877" opacity=".86"/>
</svg>
