<svg xmlns="http://www.w3.org/2000/svg" viewBox="0 0 64 64">
  <defs>
    <linearGradient id="lantern-heart-faded" x1=".2" y1=".12" x2=".8" y2=".88">
      <stop offset="0" stop-color="#f3dff0"/>
      <stop offset=".52" stop-color="#dbcae5"/>
      <stop offset="1" stop-color="#b9bdd1"/>
    </linearGradient>
    <linearGradient id="lantern-heart-faded-band" x1="0" y1="0" x2="1" y2="0">
      <stop offset="0" stop-color="#f7deea"/>
      <stop offset=".28" stop-color="#ede0ff"/>
      <stop offset=".54" stop-color="#f8efc8"/>
      <stop offset=".78" stop-color="#d5f1e3"/>
      <stop offset="1" stop-color="#d8e4ff"/>
    </linearGradient>
    <clipPath id="lantern-heart-clip">
      <path d="M32 52c-1.8 0-4.5-1.6-8.2-4.5C17.4 42.3 12 37 12 27.6 12 20.4 17 15 23.8 15c4 0 6.8 1.8 8.2 5 1.4-3.2 4.2-5 8.2-5C47 15 52 20.4 52 27.6c0 9.4-5.4 14.7-11.8 19.9C36.5 50.4 33.8 52 32 52z"/>
    </clipPath>
  </defs>
  <ellipse cx="32" cy="56" rx="12.5" ry="4.2" fill="#d7cfe2" opacity=".22"/>
  <path d="M32 52c-1.8 0-4.5-1.6-8.2-4.5C17.4 42.3 12 37 12 27.6 12 20.4 17 15 23.8 15c4 0 6.8 1.8 8.2 5 1.4-3.2 4.2-5 8.2-5C47 15 52 20.4 52 27.6c0 9.4-5.4 14.7-11.8 19.9C36.5 50.4 33.8 52 32 52z" fill="url(#lantern-heart-faded)" stroke="#9e95b8" stroke-width="2.8" stroke-linejoin="round" opacity=".92"/>
  <g clip-path="url(#lantern-heart-clip)" opacity=".72">
    <path d="M8 34.4c9-7.3 18-11 27-11 8.6 0 16.5 2.7 23.8 8.2l-4 9.8H15.4z" fill="url(#lantern-heart-faded-band)"/>
  </g>
  <path d="M28.5 20.8c-4.1-1.3-7.8.2-9.5 3.6-1.9 3.9-1 7.8 3 12" fill="none" stroke="#fff8ff" stroke-width="2" stroke-linecap="round" opacity=".7"/>
  <path d="M44 17l1.8 2.6-1.8 2.6-1.8-2.6zM18 38l1.7 2.4-1.7 2.4-1.7-2.4z" fill="#fffdfd" opacity=".7"/>
</svg>
