<svg xmlns="http://www.w3.org/2000/svg" viewBox="0 0 64 64">
  <defs>
    <radialGradient id="song-gem-glow" cx=".5" cy=".36" r=".78">
      <stop offset="0" stop-color="#fffefb"/>
      <stop offset=".62" stop-color="#e8fbff"/>
      <stop offset="1" stop-color="#bde7fb"/>
    </radialGradient>
    <linearGradient id="song-gem-rainbow" x1=".16" y1=".14" x2=".86" y2=".88">
      <stop offset="0" stop-color="#ff9ac8"/>
      <stop offset=".22" stop-color="#ffdb7d"/>
      <stop offset=".45" stop-color="#9bf1b2"/>
      <stop offset=".7" stop-color="#78dcff"/>
      <stop offset="1" stop-color="#8d92ff"/>
    </linearGradient>
    <linearGradient id="song-note" x1=".38" y1="0" x2=".68" y2="1">
      <stop offset="0" stop-color="#fff8ff"/>
      <stop offset="1" stop-color="#ffeab8"/>
    </linearGradient>
  </defs>
  <ellipse cx="32" cy="56" rx="12.5" ry="4.2" fill="#b5d8ff" opacity=".22"/>
  <path d="M19 21 32 11l13 10-4 21H23z" fill="url(#song-gem-glow)" stroke="#7184b8" stroke-width="2.8" stroke-linejoin="round"/>
  <path d="M32 13.8 42.6 22 39.4 39.8H24.6L21.4 22z" fill="url(#song-gem-rainbow)" opacity=".96"/>
  <path d="M32 13.8v26M21.4 22h21.2M24.6 39.8 32 22l7.4 17.8" fill="none" stroke="#fff5ff" stroke-width="1.5" stroke-linecap="round" stroke-linejoin="round" opacity=".7"/>
  <path d="M30 21v12.5c0 2.3-1.5 3.9-3.8 3.9-1.8 0-3.1-1.1-3.1-2.7 0-1.7 1.4-2.9 3.5-2.9.7 0 1.1.1 1.9.3V22l8-1.4v10c0 2.2-1.5 3.9-3.8 3.9-1.8 0-3.1-1.1-3.1-2.7 0-1.7 1.4-2.9 3.5-2.9.7 0 1.1.1 1.9.3V24z" fill="url(#song-note)" stroke="#6e58a6" stroke-width="1.8" stroke-linejoin="round"/>
  <path d="M44 16l2 2.8-2 2.8-2-2.8zM15 26l1.8 2.6-1.8 2.6-1.8-2.6zM47 33l1.6 2.3-1.6 2.3-1.6-2.3z" fill="#fffdfc" opacity=".88"/>
</svg>
