<svg xmlns="http://www.w3.org/2000/svg" viewBox="0 0 64 64">
  
    <defs>
      <radialGradient id="story-star-glow" cx=".5" cy=".42" r=".82">
        <stop offset="0" stop-color="#fffefb"/>
        <stop offset=".52" stop-color="#ffe9a6" stop-opacity=".72"/>
        <stop offset="1" stop-color="#ffe9a6" stop-opacity="0"/>
      </radialGradient>
      <linearGradient id="story-star-body" x1=".18" y1=".14" x2=".86" y2=".88">
        <stop offset="0" stop-color="#fff6b0"/>
        <stop offset=".44" stop-color="#ffd45f"/>
        <stop offset="1" stop-color="#f59e0b"/>
      </linearGradient>
      <linearGradient id="story-star-ribbon" x1=".2" y1=".18" x2=".82" y2=".88">
        <stop offset="0" stop-color="#ffe0f6"/>
        <stop offset="1" stop-color="#c084fc"/>
      </linearGradient>
    </defs>
    
  
    <ellipse cx="32" cy="56" rx="12.8" ry="4.3" fill="#ffd879" opacity=".22"/>
    <circle cx="32" cy="30" r="18" fill="url(#story-star-glow)" opacity=".56"/>
    <path d="M32 12l5.6 11.3 12.4 1.8-9 8.8 2.1 12.3L32 40.4l-11.1 5.8L23 33.9l-9-8.8 12.4-1.8z" fill="url(#story-star-body)" stroke="#ba7b11" stroke-width="2.6" stroke-linejoin="round" opacity="1"/>
    <path d="M26 23c4-1.7 8-1.7 12 0M24 30c5-2 10-2 16 0" fill="none" stroke="#fff7d3" stroke-width="1.5" stroke-linecap="round" opacity=".8"/>
    <path d="M29 41c2.2 1.8 3.8 1.8 6 0" fill="none" stroke="#7c3aed" stroke-width="1.8" stroke-linecap="round" opacity=".9"/>
    <path d="M23 38c4.4-4.2 10.6-4.2 18.6 0" fill="none" stroke="url(#story-star-ribbon)" stroke-width="3" stroke-linecap="round" opacity=".92"/>
    <path d="M48 18l1.8 2.6-1.8 2.6-1.8-2.6zM17 20l1.7 2.4-1.7 2.4-1.7-2.4z" fill="#fffdf4" opacity=".88"/>
    
</svg>
