<svg xmlns="http://www.w3.org/2000/svg" viewBox="0 0 280 92" preserveAspectRatio="none">
  
<defs>
  <linearGradient id="bamboo-wood" x1=".5" y1="0" x2=".5" y2="1">
    <stop offset="0" stop-color="#a77a56"/>
    <stop offset="1" stop-color="#6f4c33"/>
  </linearGradient>
  <linearGradient id="bamboo-lantern" x1=".5" y1="0" x2=".5" y2="1">
    <stop offset="0" stop-color="#fff7d1"/>
    <stop offset=".55" stop-color="#ffd67a"/>
    <stop offset="1" stop-color="#f29f38"/>
  </linearGradient>
  <radialGradient id="bamboo-glow" cx=".5" cy=".46" r=".62">
    <stop offset="0" stop-color="#fff8da"/>
    <stop offset=".58" stop-color="#ffd27c" stop-opacity=".72"/>
    <stop offset="1" stop-color="#ffd27c" stop-opacity="0"/>
  </radialGradient>
</defs>

  
  <path d="M16 18C56 6 224 6 264 18" fill="none" stroke="#9fd48a" stroke-width="10" stroke-linecap="round" opacity=".5"/>
  <path d="M16 26C58 14 222 14 264 26" fill="none" stroke="#ffe3a6" stroke-width="4" stroke-linecap="round" opacity=".78"/>
  <path d="M38 28v14M88 24v18M140 28v14M192 24v18M242 28v14" fill="none" stroke="#76503a" stroke-width="3" stroke-linecap="round" opacity=".84"/>
  <circle cx="72" cy="36" r="12" fill="url(#bamboo-glow)" opacity=".56"/>
  <circle cx="208" cy="36" r="12" fill="url(#bamboo-glow)" opacity=".56"/>
  <path d="M66 24h12v14c0 3.2-2.4 5-6 5s-6-1.8-6-5z" fill="url(#bamboo-lantern)" stroke="#7a5736" stroke-width="2" stroke-linejoin="round" opacity=".92"/>
  <path d="M202 24h12v14c0 3.2-2.4 5-6 5s-6-1.8-6-5z" fill="url(#bamboo-lantern)" stroke="#7a5736" stroke-width="2" stroke-linejoin="round" opacity=".92"/>
  <path d="M30 46c18 8 44 8 62 0M108 46c18 8 44 8 62 0M186 46c18 8 44 8 62 0" fill="none" stroke="#90bb74" stroke-width="4" stroke-linecap="round" opacity=".78"/>
  <path d="M52 48c0 10-4 18-8 28M126 48c2 12 0 20-4 30M222 48c-2 12-1 20 4 28" fill="none" stroke="#73a273" stroke-width="4" stroke-linecap="round" opacity=".76"/>
  
</svg>
