<svg xmlns="http://www.w3.org/2000/svg" viewBox="0 0 128 128">
  
<defs>
  <radialGradient id="arm-shell" cx=".35" cy=".28" r=".95">
    <stop offset="0" stop-color="#dfe8ff"/>
    <stop offset=".52" stop-color="#9cadde"/>
    <stop offset="1" stop-color="#6679b6"/>
  </radialGradient>
  <linearGradient id="arm-shell-band" x1=".5" y1="0" x2=".5" y2="1">
    <stop offset="0" stop-color="#f7fbff"/>
    <stop offset="1" stop-color="#b8c7ef"/>
  </linearGradient>
  <linearGradient id="arm-skin" x1=".3" y1="0" x2=".7" y2="1">
    <stop offset="0" stop-color="#fff2e7"/>
    <stop offset="1" stop-color="#deb8a1"/>
  </linearGradient>
  <linearGradient id="arm-belly" x1=".5" y1="0" x2=".5" y2="1">
    <stop offset="0" stop-color="#fffef9"/>
    <stop offset="1" stop-color="#f5dfce"/>
  </linearGradient>
  <linearGradient id="arm-claw" x1=".5" y1="0" x2=".5" y2="1">
    <stop offset="0" stop-color="#f7b6c4"/>
    <stop offset="1" stop-color="#dc6b96"/>
  </linearGradient>
  <radialGradient id="arm-sparkle" cx=".35" cy=".35" r=".7">
    <stop offset="0" stop-color="#fff8c6"/>
    <stop offset=".6" stop-color="#dce9ff"/>
    <stop offset="1" stop-color="#8fb1ff"/>
  </radialGradient>
</defs>

  
    <ellipse cx="64" cy="112" rx="29" ry="8" fill="#a3aed8" opacity=".24"/>
    <ellipse cx="75" cy="78" rx="31" ry="24" fill="url(#arm-shell)" stroke="#6272aa" stroke-width="5"/>
    <path d="M56 62c-6 9-10 21-10 34" fill="none" stroke="url(#arm-shell-band)" stroke-width="5" stroke-linecap="round"/>
    <path d="M69 56c-3 11-4 24-4 42" fill="none" stroke="url(#arm-shell-band)" stroke-width="5" stroke-linecap="round"/>
    <path d="M82 57c3 10 5 24 6 41" fill="none" stroke="url(#arm-shell-band)" stroke-width="5" stroke-linecap="round"/>
    <path d="M95 63c6 8 10 19 11 32" fill="none" stroke="url(#arm-shell-band)" stroke-width="5" stroke-linecap="round"/>
    <path d="M100 85c9 4 14 10 16 18-8 2-16 0-23-4" fill="#93a7e6" opacity=".42"/>
    <path d="M104 90c9 6 13 11 13 16" fill="none" stroke="#7f6166" stroke-width="4" stroke-linecap="round"/>
    <ellipse cx="59" cy="84" rx="18" ry="16" fill="url(#arm-belly)" stroke="#7f6166" stroke-width="4.2"/>
    <ellipse cx="56" cy="92" rx="8" ry="10" fill="url(#arm-skin)" stroke="#7f6166" stroke-width="3.6"/>
    <ellipse cx="43" cy="61" rx="18" ry="16" fill="url(#arm-skin)" stroke="#7f6166" stroke-width="4.2"/>
    <path d="M36 50 28 41l13 2z" fill="#f6c3d1" stroke="#7f6166" stroke-width="3.2" stroke-linejoin="round"/>
    <ellipse cx="31" cy="71" rx="10" ry="8.5" fill="#f4dbc9" stroke="#7f6166" stroke-width="3"/>
    
        <ellipse cx="46" cy="59" rx="4" ry="5.7" fill="#27304a"/>
        <circle cx="47" cy="57.4" r="1.2" fill="#fff"/>
      
    <ellipse cx="39" cy="76" rx="4.6" ry="3.8" fill="#8c5960" stroke="#7f6166" stroke-width="2"/>
    <ellipse cx="38" cy="69" rx="4" ry="2.2" fill="#f4a5b0" opacity=".36"/>
    <ellipse cx="53" cy="104" rx="8" ry="5.2" fill="url(#arm-claw)"/>
    <ellipse cx="73" cy="106" rx="8.5" ry="5.2" fill="url(#arm-claw)"/>
    
  
</svg>
