<svg xmlns="http://www.w3.org/2000/svg" viewBox="0 0 280 92" preserveAspectRatio="none">
  
<defs>
  <linearGradient id="meadow-wood" x1=".5" y1="0" x2=".5" y2="1">
    <stop offset="0" stop-color="#a27a55"/>
    <stop offset="1" stop-color="#6c4d35"/>
  </linearGradient>
  <linearGradient id="meadow-stone" x1=".22" y1=".08" x2=".88" y2=".92">
    <stop offset="0" stop-color="#f2f5f0"/>
    <stop offset=".52" stop-color="#cfd9d3"/>
    <stop offset="1" stop-color="#8d9b95"/>
  </linearGradient>
  <linearGradient id="meadow-wool" x1=".4" y1="0" x2=".6" y2="1">
    <stop offset="0" stop-color="#ffffff"/>
    <stop offset="1" stop-color="#e9efe9"/>
  </linearGradient>
</defs>

  
  <path d="M18 20C56 10 224 10 262 20" fill="none" stroke="#d7efe1" stroke-width="10" stroke-linecap="round" opacity=".54"/>
  <path d="M18 28C58 18 222 18 262 28" fill="none" stroke="#ffffff" stroke-width="4" stroke-linecap="round" opacity=".84"/>
  <ellipse cx="58" cy="23" rx="16" ry="8.4" fill="url(#meadow-wool)" opacity=".9"/>
  <ellipse cx="140" cy="18" rx="18" ry="9" fill="url(#meadow-wool)" opacity=".88"/>
  <ellipse cx="222" cy="23" rx="16" ry="8.4" fill="url(#meadow-wool)" opacity=".9"/>
  <circle cx="44" cy="38" r="3.4" fill="#e8b9ff" stroke="#b67bd8" stroke-width="1.5"/>
  <circle cx="70" cy="34" r="3.4" fill="#f7f1ff" stroke="#b67bd8" stroke-width="1.5"/>
  <circle cx="118" cy="35" r="3.4" fill="#e8b9ff" stroke="#b67bd8" stroke-width="1.5"/>
  <circle cx="144" cy="39" r="3.4" fill="#f7f1ff" stroke="#b67bd8" stroke-width="1.5"/>
  <circle cx="192" cy="35" r="3.4" fill="#e8b9ff" stroke="#b67bd8" stroke-width="1.5"/>
  <circle cx="218" cy="39" r="3.4" fill="#f7f1ff" stroke="#b67bd8" stroke-width="1.5"/>
  <path d="M32 48c16 7 36 7 52 0M114 48c16 7 36 7 52 0M196 48c16 7 36 7 52 0" fill="none" stroke="#86c090" stroke-width="4" stroke-linecap="round" opacity=".74"/>
  <path d="M54 50c-6 8-8 14-8 24M136 50c0 10-2 16-6 26M226 50c4 8 6 14 8 22" fill="none" stroke="#93c89b" stroke-width="4" stroke-linecap="round" opacity=".68"/>
  
</svg>
