<svg xmlns="http://www.w3.org/2000/svg" viewBox="0 0 128 128">
  <defs>
    <radialGradient id="fox-drake-glow" cx=".5" cy=".45" r=".68">
      <stop offset="0" stop-color="#fff7d7" stop-opacity=".96"/>
      <stop offset=".55" stop-color="#ffd17d" stop-opacity=".56"/>
      <stop offset="1" stop-color="#ffd17d" stop-opacity="0"/>
    </radialGradient>
    <linearGradient id="fox-drake-fur" x1=".22" y1=".06" x2=".8" y2=".92">
      <stop offset="0" stop-color="#ffd88d"/>
      <stop offset=".48" stop-color="#f59a1b"/>
      <stop offset="1" stop-color="#ca5e07"/>
    </linearGradient>
    <linearGradient id="fox-drake-wing" x1=".15" y1=".15" x2=".85" y2=".85">
      <stop offset="0" stop-color="#ffe7bc"/>
      <stop offset=".52" stop-color="#ffc45c"/>
      <stop offset="1" stop-color="#d97706"/>
    </linearGradient>
    <linearGradient id="fox-drake-cream" x1=".5" y1="0" x2=".5" y2="1">
      <stop offset="0" stop-color="#fffdf4"/>
      <stop offset="1" stop-color="#f4d79f"/>
    </linearGradient>
  </defs>
  <ellipse cx="65" cy="112" rx="27" ry="8" fill="#4b2d16" opacity=".16"/>
  <circle cx="64" cy="58" r="38" fill="url(#fox-drake-glow)"/>
  <path d="M27 70c-2-12 4-23 18-30 10-6 18-8 28-8-8 8-13 18-13 28 0 8 2 15 6 23-17 2-30-1-39-13z" fill="url(#fox-drake-wing)" stroke="#8d4d1e" stroke-width="4.4" stroke-linejoin="round"/>
  <path d="M79 43c14 0 24 7 30 22-11-2-20 0-29 7-5 4-9 8-12 14-5-13-2-26 11-43z" fill="url(#fox-drake-wing)" stroke="#8d4d1e" stroke-width="4.4" stroke-linejoin="round"/>
  <path d="M42 89c-14 10-18 17-14 23 4 6 15 5 27-4l5-15-18-4z" fill="url(#fox-drake-fur)" stroke="#8d4d1e" stroke-width="4" stroke-linejoin="round"/>
  <path d="M62 92c11 6 20 13 27 21 10 1 17-1 19-6 3-7-4-15-21-24l-25 9z" fill="url(#fox-drake-fur)" stroke="#8d4d1e" stroke-width="4" stroke-linejoin="round"/>
  <path d="M53 88c-2 7-5 12-10 15M75 94c5 2 9 6 13 11" fill="none" stroke="#ffe7ae" stroke-width="3" stroke-linecap="round" opacity=".78"/>
  <path d="M42 47 54 18l14 22" fill="url(#fox-drake-fur)" stroke="#8d4d1e" stroke-width="4.8" stroke-linejoin="round"/>
  <path d="M69 42 86 17l10 23" fill="url(#fox-drake-fur)" stroke="#8d4d1e" stroke-width="4.8" stroke-linejoin="round"/>
  <path d="M49 34 55 23l6 10M80 32l6-10 5 10" fill="#ffe6b6"/>
  <path d="M42 83c0-21 14-39 34-39 16 0 28 10 30 26 0 17-14 31-36 31-17 0-28-6-28-18z" fill="url(#fox-drake-fur)" stroke="#8d4d1e" stroke-width="5"/>
  <path d="M63 47c12-3 25 0 34 9-10 0-19 3-27 9-4 3-8 7-11 13-6-9-5-22 4-31z" fill="#fff0c6" opacity=".3"/>
  <ellipse cx="73" cy="77" rx="20" ry="14" fill="url(#fox-drake-cream)"/>
  <path d="M66 90c4 4 8 6 12 6 4 0 8-2 12-6" fill="none" stroke="#fffdf2" stroke-width="2.2" stroke-linecap="round" opacity=".82"/>
  <ellipse cx="66" cy="73" rx="4.2" ry="6" fill="#14324d"/>
  <ellipse cx="87" cy="74" rx="4.2" ry="6" fill="#14324d"/>
  <circle cx="67" cy="71" r="1.3" fill="#fff"/>
  <circle cx="88" cy="72" r="1.3" fill="#fff"/>
  <ellipse cx="64" cy="83" rx="4.2" ry="2.2" fill="#f7a18e" opacity=".38"/>
  <ellipse cx="90" cy="84" rx="4.2" ry="2.2" fill="#f7a18e" opacity=".38"/>
  <path d="M93 76l12 4-11 7z" fill="#fff0cc" stroke="#b45e16" stroke-width="3" stroke-linejoin="round"/>
  <path d="M71 84c4 4 8 4 12 0" fill="none" stroke="#8d4d1e" stroke-width="3.2" stroke-linecap="round"/>
  <path d="M33 72c4 3 8 4 12 3M92 32c5 2 9 5 13 10" fill="none" stroke="#fff6de" stroke-width="2.4" stroke-linecap="round" opacity=".72"/>
  <path d="M91 92c7 2 12 7 16 14" fill="none" stroke="#ffedb6" stroke-width="4" stroke-linecap="round"/>
  <path d="M105 105c3 1 6 4 8 8" fill="none" stroke="#fff0b7" stroke-width="3.2" stroke-linecap="round"/>
</svg>
