<svg xmlns="http://www.w3.org/2000/svg" viewBox="0 0 128 128">
  <defs>
    <radialGradient id="war-bird-glow" cx=".5" cy=".42" r=".72">
      <stop offset="0" stop-color="#fff7d2" stop-opacity=".92"/>
      <stop offset=".56" stop-color="#ffd7aa" stop-opacity=".54"/>
      <stop offset="1" stop-color="#ffd7aa" stop-opacity="0"/>
    </radialGradient>
    <linearGradient id="war-bird-feather" x1=".18" y1=".1" x2=".86" y2=".9">
      <stop offset="0" stop-color="#ffe5c2"/>
      <stop offset=".55" stop-color="#f39d4d"/>
      <stop offset="1" stop-color="#c76516"/>
    </linearGradient>
    <linearGradient id="war-bird-armor" x1=".2" y1=".08" x2=".84" y2=".96">
      <stop offset="0" stop-color="#f4f7fb"/>
      <stop offset=".42" stop-color="#b9c9d6"/>
      <stop offset="1" stop-color="#6e8098"/>
    </linearGradient>
    <linearGradient id="war-bird-cream" x1=".5" y1="0" x2=".5" y2="1">
      <stop offset="0" stop-color="#fffaf0"/>
      <stop offset="1" stop-color="#efd39f"/>
    </linearGradient>
  </defs>
  <ellipse cx="64" cy="112" rx="25" ry="8" fill="#74451f" opacity=".16"/>
  <circle cx="64" cy="58" r="37" fill="url(#war-bird-glow)"/>
  <path d="M23 69c9-14 19-22 33-25-4 9-4 18-1 27-10 2-21 1-32-2z" fill="url(#war-bird-feather)" stroke="#8b4615" stroke-width="4.2" stroke-linejoin="round"/>
  <path d="M34 60c-5 2-9 5-13 10" fill="none" stroke="#fff7df" stroke-width="2.2" stroke-linecap="round"/>
  <path d="M103 54c-3-13-11-22-22-27-8-3-16-4-23-2 7 7 11 15 12 25 1 8-1 16-4 24 16-2 27-7 37-20z" fill="url(#war-bird-feather)" stroke="#8b4615" stroke-width="4.2" stroke-linejoin="round"/>
  <path d="M56 43c13-5 27-3 38 7-11 0-20 3-28 9-5 4-9 9-12 15-6-10-6-22 2-31z" fill="#fff3cf" opacity=".3"/>
  <path d="M43 89c-2 12 1 21 9 25 8 3 18-3 24-15l-7-12-26 2z" fill="url(#war-bird-feather)" stroke="#8b4615" stroke-width="4" stroke-linejoin="round"/>
  <path d="M44 85c2-20 16-36 35-36 18 0 32 13 32 31-2 19-17 33-36 33-20 0-32-13-31-28z" fill="url(#war-bird-armor)" stroke="#4f6279" stroke-width="5"/>
  <path d="M63 52c9-5 21-6 31 1-8 1-16 4-23 9-4 4-7 8-9 14-6-8-6-17 1-24z" fill="#ffffff" opacity=".24"/>
  <path d="M47 57c-6 1-11 6-13 12M88 43c6 2 11 6 14 12" fill="none" stroke="#ffffff" stroke-width="2.4" stroke-linecap="round" opacity=".7"/>
  <path d="M54 58c1-7 8-12 17-12 11 0 18 7 18 18v3l-12 5-19-2-4-12z" fill="url(#war-bird-cream)"/>
  <ellipse cx="62" cy="65" rx="4" ry="5.6" fill="#1f3655"/>
  <circle cx="63" cy="63" r="1.2" fill="#fff"/>
  <path d="M76 67 90 71l-12 7z" fill="#ffefcf" stroke="#c2741d" stroke-width="3" stroke-linejoin="round"/>
  <path d="M59 74c5 3 9 3 13 0" fill="none" stroke="#b75e17" stroke-width="2.8" stroke-linecap="round"/>
  <path d="M56 47c2 0 4 2 4 4M92 61c4 1 7 3 10 6" fill="none" stroke="#d8e0e8" stroke-width="3" stroke-linecap="round"/>
  <path d="M46 95c3 10 9 16 18 18M81 99c6 5 12 8 19 9" fill="none" stroke="#fff6e4" stroke-width="3.2" stroke-linecap="round" opacity=".76"/>
  <path d="M94 38l8 2M100 50l7 4M92 29l4 6" fill="none" stroke="#ffe08c" stroke-width="3" stroke-linecap="round"/>
</svg>
