<svg xmlns="http://www.w3.org/2000/svg" viewBox="0 0 128 128">
  <defs>
    <radialGradient id="story-drake-glow" cx=".5" cy=".45" r=".68">
      <stop offset="0" stop-color="#fff7d7" stop-opacity=".86"/>
      <stop offset=".56" stop-color="#ede2ff" stop-opacity=".52"/>
      <stop offset="1" stop-color="#ede2ff" stop-opacity="0"/>
    </radialGradient>
    <linearGradient id="story-drake-body" x1=".2" y1=".08" x2=".82" y2=".92">
      <stop offset="0" stop-color="#f8e7ff"/>
      <stop offset=".5" stop-color="#be8cf7"/>
      <stop offset="1" stop-color="#6c43b2"/>
    </linearGradient>
    <linearGradient id="story-drake-page" x1=".12" y1=".12" x2=".88" y2=".88">
      <stop offset="0" stop-color="#fffdf2"/>
      <stop offset=".6" stop-color="#f2ead4"/>
      <stop offset="1" stop-color="#d6c59a"/>
    </linearGradient>
    <linearGradient id="story-drake-belly" x1=".5" y1="0" x2=".5" y2="1">
      <stop offset="0" stop-color="#fff7e5"/>
      <stop offset="1" stop-color="#f3d58e"/>
    </linearGradient>
  </defs>
  <ellipse cx="64" cy="112" rx="26" ry="8" fill="#5b4e73" opacity=".16"/>
  <circle cx="64" cy="58" r="38" fill="url(#story-drake-glow)"/>
  <path d="M24 70c4-12 12-20 25-24 8-3 15-4 21-3-8 8-11 17-10 27 0 8 3 15 7 22-16-1-28-6-43-22z" fill="url(#story-drake-page)" stroke="#8a7a56" stroke-width="4" stroke-linejoin="round"/>
  <path d="M80 41c15 0 24 8 28 22-10 0-18 3-24 9-5 5-8 9-10 15-8-11-6-23 6-46z" fill="url(#story-drake-page)" stroke="#8a7a56" stroke-width="4" stroke-linejoin="round"/>
  <path d="M43 43 55 16l14 21" fill="url(#story-drake-body)" stroke="#5c3f8b" stroke-width="4.8" stroke-linejoin="round"/>
  <path d="M70 39 87 16l8 23" fill="url(#story-drake-body)" stroke="#5c3f8b" stroke-width="4.8" stroke-linejoin="round"/>
  <path d="M50 31 56 22l5 9M80 31l6-10 4 10" fill="#fff7d7"/>
  <path d="M46 92c-13 10-18 17-14 23 3 6 14 5 27-4l4-15-17-4z" fill="url(#story-drake-body)" stroke="#5c3f8b" stroke-width="4" stroke-linejoin="round"/>
  <path d="M78 96c9 3 16 8 23 16 9 1 14-1 16-6 2-6-4-13-17-21l-22 11z" fill="url(#story-drake-body)" stroke="#5c3f8b" stroke-width="4" stroke-linejoin="round"/>
  <path d="M43 84c0-22 14-41 33-41 17 0 30 12 30 30-2 17-16 29-37 29-17 0-26-6-26-18z" fill="url(#story-drake-body)" stroke="#5c3f8b" stroke-width="5"/>
  <path d="M66 46c11-2 22 1 31 9-9 0-17 3-23 8-5 4-8 8-10 13-7-10-7-20 2-30z" fill="#fff3cb" opacity=".26"/>
  <ellipse cx="71" cy="77" rx="19" ry="14" fill="url(#story-drake-belly)"/>
  <ellipse cx="65" cy="73" rx="4.2" ry="6" fill="#3f2a58"/>
  <ellipse cx="85" cy="73" rx="4.2" ry="6" fill="#3f2a58"/>
  <circle cx="66" cy="71" r="1.2" fill="#fff"/>
  <circle cx="86" cy="71" r="1.2" fill="#fff"/>
  <ellipse cx="63" cy="82" rx="4.2" ry="2.2" fill="#f3a8b8" opacity=".36"/>
  <ellipse cx="87" cy="82" rx="4.2" ry="2.2" fill="#f3a8b8" opacity=".36"/>
  <path d="M71 79l11 4-10 7z" fill="#fff1d6" stroke="#8f6e2c" stroke-width="3" stroke-linejoin="round"/>
  <path d="M66 90c4 4 8 4 12 0" fill="none" stroke="#8f6e2c" stroke-width="3" stroke-linecap="round"/>
  <path d="M21 49 40 45l-7 18-18 4z" fill="url(#story-drake-page)" stroke="#8a7a56" stroke-width="3.4" stroke-linejoin="round"/>
  <path d="M86 89 106 92l-11 16-19-4z" fill="url(#story-drake-page)" stroke="#8a7a56" stroke-width="3.4" stroke-linejoin="round"/>
  <path d="M24 49c7 2 11 5 14 11M89 89c6 1 11 4 16 10" fill="none" stroke="#d8c99d" stroke-width="2.1" stroke-linecap="round"/>
  <path d="M100 40l4 4M22 94l4 4M92 24l5 2M34 25l-4 3" fill="none" stroke="#fae27c" stroke-width="2.4" stroke-linecap="round"/>
</svg>
