<svg xmlns="http://www.w3.org/2000/svg" viewBox="0 0 96 96">
  
<defs>
  <linearGradient id="orchard-wood" x1=".5" y1="0" x2=".5" y2="1">
    <stop offset="0" stop-color="#b77b48"/>
    <stop offset="1" stop-color="#825126"/>
  </linearGradient>
  <linearGradient id="orchard-leaf" x1=".24" y1=".1" x2=".8" y2=".9">
    <stop offset="0" stop-color="#e5f7b4"/>
    <stop offset=".5" stop-color="#96d167"/>
    <stop offset="1" stop-color="#4f9d49"/>
  </linearGradient>
  <radialGradient id="orchard-fruit" cx=".45" cy=".34" r=".72">
    <stop offset="0" stop-color="#fff0b0"/>
    <stop offset=".45" stop-color="#ffb54d"/>
    <stop offset="1" stop-color="#f07721"/>
  </radialGradient>
  <radialGradient id="orchard-glass" cx=".4" cy=".3" r=".86">
    <stop offset="0" stop-color="#f8ffff"/>
    <stop offset=".6" stop-color="#d5eff7"/>
    <stop offset="1" stop-color="#8ab9d1"/>
  </radialGradient>
</defs>

  
  <ellipse cx="48" cy="88" rx="24" ry="5" fill="#72523b" opacity=".14"/>
  <path d="M22 78V50c0-18 10-28 26-28s26 10 26 28v28" fill="none" stroke="#9c6937" stroke-width="7" stroke-linecap="round"/>
  <path d="M22 52c7-6 17-9 26-9 9 0 19 3 26 9" fill="none" stroke="#7e4f24" stroke-width="4" stroke-linecap="round"/>
  <path d="M26 41c5-7 10-11 19-14M54 27c9 3 14 7 17 14" fill="none" stroke="url(#orchard-leaf)" stroke-width="7" stroke-linecap="round"/>
  <circle cx="33" cy="34" r="5.5" fill="url(#orchard-fruit)" stroke="#cc711f" stroke-width="2.4"/>
  <circle cx="48" cy="26" r="6" fill="url(#orchard-fruit)" stroke="#cc711f" stroke-width="2.4"/>
  <circle cx="63" cy="34" r="5.5" fill="url(#orchard-fruit)" stroke="#cc711f" stroke-width="2.4"/>
  <path d="M30 61c10 8 26 8 36 0" fill="none" stroke="#f6d690" stroke-width="3.4" stroke-linecap="round" opacity=".76"/>
  
</svg>
