<svg xmlns="http://www.w3.org/2000/svg" viewBox="0 0 256 256">
  <defs>
    <linearGradient id="faithful-body" x1="0.5" y1="0" x2="0.5" y2="1">
      <stop offset="0" stop-color="#fffefc"/>
      <stop offset="0.62" stop-color="#fff8fb"/>
      <stop offset="1" stop-color="#dfe4ff"/>
    </linearGradient>
    <linearGradient id="faithful-body-shade" x1="0.15" y1="0.1" x2="0.88" y2="0.95">
      <stop offset="0" stop-color="#ffffff"/>
      <stop offset="0.58" stop-color="#eef0ff"/>
      <stop offset="1" stop-color="#cfd4ff"/>
    </linearGradient>
    <linearGradient id="faithful-pink" x1="0.15" y1="0.1" x2="0.88" y2="0.92">
      <stop offset="0" stop-color="#ffd6eb"/>
      <stop offset="0.28" stop-color="#ff9dcb"/>
      <stop offset="0.7" stop-color="#ff7ab7"/>
      <stop offset="1" stop-color="#f05ca7"/>
    </linearGradient>
    <linearGradient id="faithful-blue" x1="0.15" y1="0.1" x2="0.86" y2="0.94">
      <stop offset="0" stop-color="#f7fbff"/>
      <stop offset="0.22" stop-color="#d9f7ff"/>
      <stop offset="0.56" stop-color="#8fcbff"/>
      <stop offset="1" stop-color="#6d91ff"/>
    </linearGradient>
    <linearGradient id="faithful-tail" x1="0.05" y1="0.1" x2="0.92" y2="0.9">
      <stop offset="0" stop-color="#ff97ca"/>
      <stop offset="0.38" stop-color="#ff6db7"/>
      <stop offset="0.68" stop-color="#78dfff"/>
      <stop offset="1" stop-color="#6e8cff"/>
    </linearGradient>
    <linearGradient id="faithful-wing" x1="0.12" y1="0.12" x2="0.88" y2="0.88">
      <stop offset="0" stop-color="#baf7ff"/>
      <stop offset="0.42" stop-color="#89d9ff"/>
      <stop offset="0.78" stop-color="#6ea8ff"/>
      <stop offset="1" stop-color="#7580ea"/>
    </linearGradient>
    <linearGradient id="faithful-wing-inner" x1="0.12" y1="0.12" x2="0.88" y2="0.88">
      <stop offset="0" stop-color="#fffef7"/>
      <stop offset="1" stop-color="#fff2cf"/>
    </linearGradient>
    <linearGradient id="faithful-wing-sheen" x1="0.18" y1="0.08" x2="0.84" y2="0.94">
      <stop offset="0" stop-color="#ffffff" stop-opacity="0.94"/>
      <stop offset="0.46" stop-color="#dcf9ff" stop-opacity="0.74"/>
      <stop offset="1" stop-color="#94b9ff" stop-opacity="0.14"/>
    </linearGradient>
    <linearGradient id="faithful-eye" x1="0.5" y1="0" x2="0.5" y2="1">
      <stop offset="0" stop-color="#2f5cff"/>
      <stop offset="0.45" stop-color="#12b8ff"/>
      <stop offset="1" stop-color="#8cfaff"/>
    </linearGradient>
    <linearGradient id="faithful-horn" x1="0.3" y1="0" x2="0.82" y2="1">
      <stop offset="0" stop-color="#fbffff"/>
      <stop offset="0.28" stop-color="#d6fbff"/>
      <stop offset="0.62" stop-color="#86bcff"/>
      <stop offset="1" stop-color="#5566df"/>
    </linearGradient>
    <linearGradient id="faithful-hoof" x1="0.5" y1="0" x2="0.5" y2="1">
      <stop offset="0" stop-color="#ffbfd6"/>
      <stop offset="1" stop-color="#ef6bb1"/>
    </linearGradient>
    <radialGradient id="faithful-cheek" cx="0.5" cy="0.5" r="0.72">
      <stop offset="0" stop-color="#ffadc9" stop-opacity="0.92"/>
      <stop offset="1" stop-color="#ffadc9" stop-opacity="0"/>
    </radialGradient>
    <filter id="faithful-shadow" x="-35%" y="-35%" width="170%" height="170%">
      <feDropShadow dx="0" dy="8" stdDeviation="8" flood-color="#7a57b9" flood-opacity="0.2"/>
    </filter>
  </defs>

  <ellipse cx="128" cy="238" rx="64" ry="11" fill="#ebb8d7" opacity="0.34"/>

  <g filter="url(#faithful-shadow)" stroke="#6f4aa9" stroke-linecap="round" stroke-linejoin="round">
    <path
      d="M164 176c28 2 49 20 52 42 2 18-10 28-24 28-12 0-25-5-39-16 10 12 14 25 10 35-4 11-17 16-30 13 8-4 14-10 17-18 4-10-1-22-15-37z"
      fill="url(#faithful-tail)"
      stroke-width="5.2"
    />
    <path
      d="M167 186c16 4 28 13 30 24 1 8-4 13-11 13-7 0-15-4-26-13"
      fill="none"
      stroke="#ffffff"
      stroke-opacity="0.52"
      stroke-width="3.4"
    />

    <g transform="translate(2 46)">
      <path
        d="M78 16c-30 6-53 29-58 58-5 27 4 50 23 64 16 11 39 14 58 7-15-13-24-28-27-45-2-14 0-29 5-47 5-16 2-28-11-37z"
        fill="url(#faithful-wing)"
        stroke-width="5"
      />
      <path d="M64 22c-17 8-29 23-31 42-2 12 0 24 7 35" fill="none" stroke="#dbfbff" stroke-opacity="0.72" stroke-width="3.3"/>
      <path d="M78 26c-7 12-10 25-9 40 1 14 6 26 15 37" fill="none" stroke="#ffffff" stroke-opacity="0.66" stroke-width="3.1"/>
      <path d="M85 33c-3 13-1 29 7 46" fill="none" stroke="#ffffff" stroke-opacity="0.38" stroke-width="2.6"/>
      <path d="M66 23c-15 12-21 25-20 40 1 11 7 21 17 31 0-13 3-25 9-37 5-10 5-22-6-34z" fill="url(#faithful-wing-sheen)" stroke="none"/>
      <path d="M62 26c-12 7-19 20-19 35 0 11 4 21 12 31 7-5 11-11 14-20 2-10 0-22-7-36z" fill="url(#faithful-wing-inner)" stroke-width="4.1"/>
      <path d="M49 39c-15 11-23 25-22 42 1 11 6 21 16 31 8-6 12-13 15-23 2-12-1-25-9-38z" fill="url(#faithful-wing-inner)" stroke-width="4.1"/>
      <path d="M39 59c-13 10-18 23-16 38 1 10 7 20 16 28 7-6 10-13 12-22 1-12-3-26-12-44z" fill="url(#faithful-wing-inner)" stroke-width="4.1"/>
      <path d="M78 47c-6 10-7 22-3 34 3 10 9 20 19 28 5-7 7-15 7-24 0-12-6-25-23-38z" fill="url(#faithful-wing-inner)" stroke-width="4.1"/>
      <path d="M81 73c-3 9-2 18 2 27 4 8 10 16 18 22 4-6 6-12 6-19 0-10-6-21-26-30z" fill="url(#faithful-wing-inner)" stroke-width="4.1"/>
      <path d="M29 99c5-3 9-4 14-4 4 0 7 1 10 2" fill="none" stroke="#6feeff" stroke-width="5.4" stroke-linecap="round" stroke-opacity="0.82"/>
      <path d="M35 118c4-2 8-3 13-3 3 0 6 1 10 2" fill="none" stroke="#6feeff" stroke-width="5.4" stroke-linecap="round" stroke-opacity="0.82"/>
      <path d="M87 101c4-2 8-3 12-3 3 0 6 0 9 2" fill="none" stroke="#6feeff" stroke-width="5.1" stroke-linecap="round" stroke-opacity="0.72"/>
      <path d="M90 121c3-2 7-2 10-2 3 0 5 1 8 2" fill="none" stroke="#6feeff" stroke-width="5.1" stroke-linecap="round" stroke-opacity="0.72"/>
      <path d="M40 58c12-4 24-3 38 6M36 81c12-3 22-1 35 7M49 34c9-5 18-5 28 0" fill="none" stroke="#ffffff" stroke-opacity="0.34" stroke-width="2.8" stroke-linecap="round"/>
    </g>

    <g transform="translate(254 46) scale(-1 1)">
      <path
        d="M78 16c-30 6-53 29-58 58-5 27 4 50 23 64 16 11 39 14 58 7-15-13-24-28-27-45-2-14 0-29 5-47 5-16 2-28-11-37z"
        fill="url(#faithful-wing)"
        stroke-width="5"
      />
      <path d="M64 22c-17 8-29 23-31 42-2 12 0 24 7 35" fill="none" stroke="#dbfbff" stroke-opacity="0.72" stroke-width="3.3"/>
      <path d="M78 26c-7 12-10 25-9 40 1 14 6 26 15 37" fill="none" stroke="#ffffff" stroke-opacity="0.66" stroke-width="3.1"/>
      <path d="M85 33c-3 13-1 29 7 46" fill="none" stroke="#ffffff" stroke-opacity="0.38" stroke-width="2.6"/>
      <path d="M66 23c-15 12-21 25-20 40 1 11 7 21 17 31 0-13 3-25 9-37 5-10 5-22-6-34z" fill="url(#faithful-wing-sheen)" stroke="none"/>
      <path d="M62 26c-12 7-19 20-19 35 0 11 4 21 12 31 7-5 11-11 14-20 2-10 0-22-7-36z" fill="url(#faithful-wing-inner)" stroke-width="4.1"/>
      <path d="M49 39c-15 11-23 25-22 42 1 11 6 21 16 31 8-6 12-13 15-23 2-12-1-25-9-38z" fill="url(#faithful-wing-inner)" stroke-width="4.1"/>
      <path d="M39 59c-13 10-18 23-16 38 1 10 7 20 16 28 7-6 10-13 12-22 1-12-3-26-12-44z" fill="url(#faithful-wing-inner)" stroke-width="4.1"/>
      <path d="M78 47c-6 10-7 22-3 34 3 10 9 20 19 28 5-7 7-15 7-24 0-12-6-25-23-38z" fill="url(#faithful-wing-inner)" stroke-width="4.1"/>
      <path d="M81 73c-3 9-2 18 2 27 4 8 10 16 18 22 4-6 6-12 6-19 0-10-6-21-26-30z" fill="url(#faithful-wing-inner)" stroke-width="4.1"/>
      <path d="M29 99c5-3 9-4 14-4 4 0 7 1 10 2" fill="none" stroke="#6feeff" stroke-width="5.4" stroke-linecap="round" stroke-opacity="0.82"/>
      <path d="M35 118c4-2 8-3 13-3 3 0 6 1 10 2" fill="none" stroke="#6feeff" stroke-width="5.4" stroke-linecap="round" stroke-opacity="0.82"/>
      <path d="M87 101c4-2 8-3 12-3 3 0 6 0 9 2" fill="none" stroke="#6feeff" stroke-width="5.1" stroke-linecap="round" stroke-opacity="0.72"/>
      <path d="M90 121c3-2 7-2 10-2 3 0 5 1 8 2" fill="none" stroke="#6feeff" stroke-width="5.1" stroke-linecap="round" stroke-opacity="0.72"/>
      <path d="M40 58c12-4 24-3 38 6M36 81c12-3 22-1 35 7M49 34c9-5 18-5 28 0" fill="none" stroke="#ffffff" stroke-opacity="0.34" stroke-width="2.8" stroke-linecap="round"/>
    </g>

    <path
      d="M84 62c11-17 30-27 45-27 10 0 20 3 30 8 10 5 18 13 22 23-8-6-16-9-25-10 7 9 10 18 8 29-2 12-9 20-21 24-10 3-22 3-37 2-22-2-41 1-54-11-10-9-10-24 0-38 7-9 17-17 32-22z"
      fill="url(#faithful-pink)"
      stroke-width="5.4"
    />
    <path d="M109 46c22-6 45 0 59 14-16-3-31-2-45 4-11 4-20 10-28 20-3-15 1-28 14-38z" fill="#fff6fb" opacity="0.46" stroke="none"/>

    <path
      d="M128 4 140 28c-3 21-6 42-9 63-1 7-2 10-3 10s-2-3-3-10c-3-21-6-42-9-63z"
      fill="url(#faithful-horn)"
      stroke-width="5.2"
    />
    <path d="M128 9 135 28c-2 19-4 38-6 57-1 5-1 8-1 9-1-1-2-4-3-9-2-19-4-38-5-57z" fill="#ffffff" opacity="0.26" stroke="none"/>
    <path d="M124 12c-4 5-6 11-6 18 2 18 4 37 7 57 1 4 2 7 3 8" fill="none" stroke="#eefcff" stroke-opacity="0.82" stroke-width="2.6" stroke-linecap="round"/>
    <path d="M118 29c7 4 14 4 21 0M119 42c6 4 12 4 18 1M120 56c5 3 10 4 15 2M121 70c4 3 8 3 12 1M122 84c3 2 6 2 9 1" fill="none" stroke="#ffffff" stroke-opacity="0.9" stroke-width="2.6" stroke-linecap="round"/>
    <ellipse cx="128" cy="91" rx="8.2" ry="2.8" fill="#a5cbff" opacity="0.26" stroke="none"/>

    <path
      d="M70 55c-11 8-18 21-16 33 2 10 9 16 21 18 0-10 2-19 6-27 4-7 9-13 17-18-11-7-20-8-28-6z"
      fill="url(#faithful-body)"
      stroke-width="5"
    />
    <path
      d="M186 55c11 8 18 21 16 33-2 10-9 16-21 18 0-10-2-19-6-27-4-7-9-13-17-18 11-7 20-8 28-6z"
      fill="url(#faithful-body)"
      stroke-width="5"
    />
    <path d="M80 67c5-4 10-6 15-6-5 5-8 11-11 18" fill="none" stroke="#ffffff" stroke-opacity="0.74" stroke-width="2.4"/>
    <path d="M176 67c-5-4-10-6-15-6 5 5 8 11 11 18" fill="none" stroke="#ffffff" stroke-opacity="0.74" stroke-width="2.4"/>
    <path d="M82 68c6 3 11 9 15 18" fill="none" stroke="#ff9cc8" stroke-opacity="0.54" stroke-width="2.3"/>
    <path d="M174 68c-6 3-11 9-15 18" fill="none" stroke="#ff9cc8" stroke-opacity="0.54" stroke-width="2.3"/>

    <path
      d="M83 102c1-31 22-53 45-53 18 0 33 10 42 26 14 0 28 14 30 34 2 25-10 49-32 60-11 6-25 9-40 9-22 0-41-6-54-19-12-12-18-29-17-47 0-4 0-7 1-10 8 8 17 11 25 11z"
      fill="url(#faithful-body)"
      stroke-width="5.8"
    />
    <path d="M95 86c11-14 24-21 39-21 23 0 42 13 49 33-8-9-18-14-31-16-23-2-40 2-57 16z" fill="#ffffff" opacity="0.58" stroke="none"/>
    <path d="M93 114c5 6 9 13 11 23 2 8 1 17-3 29-8-8-13-18-13-31 0-8 1-15 5-21z" fill="#d7ddff" opacity="0.9" stroke="none"/>
    <path d="M163 114c-5 6-9 13-11 23-2 8-1 17 3 29 8-8 13-18 13-31 0-8-1-15-5-21z" fill="#ffb4d8" opacity="0.72" stroke="none"/>

    <path
      d="M96 76c7-13 18-20 33-22 11-2 23 1 34 7 11 6 18 16 20 29-6 13-19 20-39 19-10-1-22-1-35 0-15 1-27-2-36-8 2-10 10-19 23-25z"
      fill="url(#faithful-blue)"
      stroke-width="5.2"
    />
    <path d="M110 70c15-5 31-2 43 8-12-1-24 1-36 7-7 3-12 7-17 13-2-10 2-19 10-28z" fill="#ffffff" opacity="0.42" stroke="none"/>
    <path d="M121 69c1 12 0 23-3 34M136 69c-1 12 0 23 3 34" fill="none" stroke="#d8f6ff" stroke-width="3.2"/>

    <path d="M109 165c-16 6-25 22-25 42 0 27 17 42 44 42 27 0 44-15 44-42 0-19-8-35-22-42z" fill="url(#faithful-body)" stroke-width="5.8"/>
    <path d="M101 173c8-5 17-8 27-8 9 0 18 3 27 8 6 9 8 20 8 31 0 18-12 29-35 29-24 0-36-11-36-29 0-11 3-22 9-31z" fill="url(#faithful-body-shade)" opacity="0.52" stroke="none"/>
    <path d="M116 172c-4 18-5 33-2 52M140 172c4 18 5 33 2 52" fill="none" stroke="#cdd2ff" stroke-width="5.4"/>
    <path d="M118 174c-1 18-1 33 1 49M138 174c1 18 1 33-1 49" fill="none" stroke="#ffffff" stroke-opacity="0.7" stroke-width="3"/>

    <path d="M92 81c-8 5-13 14-15 25 9-6 18-8 28-8 1-11 5-19 12-25-10 0-18 2-25 8z" fill="#ff9cc8" opacity="0.82" stroke="none"/>
    <path d="M164 81c8 5 13 14 15 25-9-6-18-8-28-8-1-11-5-19-12-25 10 0 18 2 25 8z" fill="#8bc8ff" opacity="0.85" stroke="none"/>

    <g>
      <path d="M80 109c5-9 13-14 24-14 10 0 18 4 23 13" fill="none" stroke="#180f40" stroke-width="5.2"/>
      <ellipse cx="97" cy="128" rx="18" ry="23" fill="#0d102d" stroke="none"/>
      <ellipse cx="97" cy="131" rx="13" ry="18" fill="url(#faithful-eye)" stroke="none"/>
      <circle cx="91" cy="120" r="4.6" fill="#ffffff" stroke="none"/>
      <circle cx="101" cy="130" r="2.9" fill="#ffffff" stroke="none"/>
      <circle cx="90" cy="139" r="2" fill="#a8faff" opacity="0.76" stroke="none"/>
      <path d="M80 107c5-8 11-12 18-14M88 105c3-2 7-3 11-3" fill="none" stroke="#180f40" stroke-width="3.2"/>
    </g>

    <g>
      <path d="M176 109c-5-9-13-14-24-14-10 0-18 4-23 13" fill="none" stroke="#180f40" stroke-width="5.2"/>
      <ellipse cx="159" cy="128" rx="18" ry="23" fill="#0d102d" stroke="none"/>
      <ellipse cx="159" cy="131" rx="13" ry="18" fill="url(#faithful-eye)" stroke="none"/>
      <circle cx="153" cy="120" r="4.6" fill="#ffffff" stroke="none"/>
      <circle cx="163" cy="130" r="2.9" fill="#ffffff" stroke="none"/>
      <circle cx="152" cy="139" r="2" fill="#a8faff" opacity="0.76" stroke="none"/>
      <path d="M176 107c-5-8-11-12-18-14M168 105c-3-2-7-3-11-3" fill="none" stroke="#180f40" stroke-width="3.2"/>
    </g>

    <ellipse cx="86" cy="146" rx="16" ry="11" fill="url(#faithful-cheek)" stroke="none"/>
    <ellipse cx="170" cy="146" rx="16" ry="11" fill="url(#faithful-cheek)" stroke="none"/>

    <ellipse cx="128" cy="143" rx="17" ry="12" fill="#ffc2d7" stroke="#d06a99" stroke-width="2.8"/>
    <ellipse cx="121.5" cy="142" rx="2.3" ry="3" fill="#7c4767" stroke="none"/>
    <ellipse cx="134.5" cy="142" rx="2.3" ry="3" fill="#7c4767" stroke="none"/>
    <path d="M121 149c5 4 9 4 14 0" fill="none" stroke="#a3597d" stroke-width="2.2"/>

    <ellipse cx="97" cy="220" rx="14" ry="11" fill="url(#faithful-hoof)" stroke-width="4.6"/>
    <ellipse cx="119" cy="223" rx="14" ry="11" fill="url(#faithful-hoof)" stroke-width="4.6"/>
    <ellipse cx="137" cy="223" rx="14" ry="11" fill="url(#faithful-hoof)" stroke-width="4.6"/>
    <ellipse cx="159" cy="220" rx="14" ry="11" fill="url(#faithful-hoof)" stroke-width="4.6"/>
    <path d="M90 214c4 3 8 3 11 0M155 214c4 3 8 3 11 0" fill="none" stroke="#fff4fb" stroke-opacity="0.9" stroke-width="2.8"/>
    <circle cx="95" cy="215" r="2.8" fill="#fff8fb" stroke="none"/>
    <circle cx="117" cy="218" r="2.8" fill="#fff8fb" stroke="none"/>
    <circle cx="135" cy="218" r="2.8" fill="#fff8fb" stroke="none"/>
    <circle cx="157" cy="215" r="2.8" fill="#fff8fb" stroke="none"/>
  </g>
</svg>
