<svg xmlns="http://www.w3.org/2000/svg" viewBox="0 0 280 92" preserveAspectRatio="none">
  
<defs>
  <linearGradient id="prairie-post" x1=".5" y1="0" x2=".5" y2="1">
    <stop offset="0" stop-color="#f4f7ff"/>
    <stop offset="1" stop-color="#b9cce8"/>
  </linearGradient>
  <linearGradient id="prairie-leaf" x1=".3" y1=".1" x2=".78" y2=".94">
    <stop offset="0" stop-color="#d6f6be"/>
    <stop offset=".5" stop-color="#85c86d"/>
    <stop offset="1" stop-color="#4a9758"/>
  </linearGradient>
  <radialGradient id="prairie-petal" cx=".45" cy=".32" r=".72">
    <stop offset="0" stop-color="#f8fbff"/>
    <stop offset=".46" stop-color="#8fb8ff"/>
    <stop offset="1" stop-color="#4966db"/>
  </radialGradient>
  <radialGradient id="prairie-firefly" cx=".5" cy=".45" r=".62">
    <stop offset="0" stop-color="#fff8d8"/>
    <stop offset=".6" stop-color="#bce9ff" stop-opacity=".74"/>
    <stop offset="1" stop-color="#bce9ff" stop-opacity="0"/>
  </radialGradient>
</defs>

  
  <path d="M18 19C56 9 224 9 262 19" fill="none" stroke="#cfe9ff" stroke-width="10" stroke-linecap="round" opacity=".52"/>
  <path d="M18 27C58 17 222 17 262 27" fill="none" stroke="#f8fbff" stroke-width="4" stroke-linecap="round" opacity=".84"/>
  <path d="M30 38c14-12 28-12 42 0M104 38c14-12 28-12 42 0M178 38c14-12 28-12 42 0" fill="none" stroke="#9bc5ff" stroke-width="4" stroke-linecap="round" opacity=".76"/>
  <path d="M48 24c3-8 7-10 12-8-2 4-2 7-1 11-4 1-8-1-11-3z" fill="url(#prairie-petal)" stroke="#4d67d8" stroke-width="1.6"/>
  <path d="M136 20c3-8 7-10 12-8-2 4-2 7-1 11-4 1-8-1-11-3z" fill="url(#prairie-petal)" stroke="#4d67d8" stroke-width="1.6"/>
  <path d="M224 24c3-8 7-10 12-8-2 4-2 7-1 11-4 1-8-1-11-3z" fill="url(#prairie-petal)" stroke="#4d67d8" stroke-width="1.6"/>
  <circle cx="84" cy="31" r="9" fill="url(#prairie-firefly)" opacity=".6"/>
  <circle cx="194" cy="31" r="9" fill="url(#prairie-firefly)" opacity=".6"/>
  <path d="M64 48c-4 8-6 14-8 22M140 48c0 10-2 16-6 26M214 48c4 8 6 14 8 22" fill="none" stroke="#7db07a" stroke-width="4" stroke-linecap="round" opacity=".68"/>
  
</svg>
