<svg xmlns="http://www.w3.org/2000/svg" viewBox="0 0 128 128">
  
<defs>
  <linearGradient id="gnome-hat" x1=".35" y1="0" x2=".8" y2="1">
    <stop offset="0" stop-color="#dcc3ff"/>
    <stop offset=".45" stop-color="#9b74ea"/>
    <stop offset="1" stop-color="#6b43be"/>
  </linearGradient>
  <linearGradient id="gnome-brim" x1=".5" y1="0" x2=".5" y2="1">
    <stop offset="0" stop-color="#f5e9ff"/>
    <stop offset="1" stop-color="#b59af1"/>
  </linearGradient>
  <linearGradient id="gnome-coat" x1=".3" y1="0" x2=".7" y2="1">
    <stop offset="0" stop-color="#bce59f"/>
    <stop offset=".45" stop-color="#6faf6b"/>
    <stop offset="1" stop-color="#427f55"/>
  </linearGradient>
  <linearGradient id="gnome-sleeve" x1=".4" y1="0" x2=".6" y2="1">
    <stop offset="0" stop-color="#cbf0b4"/>
    <stop offset="1" stop-color="#5d9a67"/>
  </linearGradient>
  <linearGradient id="gnome-skin" x1=".35" y1="0" x2=".7" y2="1">
    <stop offset="0" stop-color="#ffe7d6"/>
    <stop offset="1" stop-color="#efb899"/>
  </linearGradient>
  <linearGradient id="gnome-beard" x1=".3" y1="0" x2=".75" y2="1">
    <stop offset="0" stop-color="#fffef8"/>
    <stop offset=".7" stop-color="#f2e0c0"/>
    <stop offset="1" stop-color="#d5bd96"/>
  </linearGradient>
  <linearGradient id="gnome-boot" x1=".5" y1="0" x2=".5" y2="1">
    <stop offset="0" stop-color="#9f7d57"/>
    <stop offset="1" stop-color="#6b4f37"/>
  </linearGradient>
  <radialGradient id="gnome-star" cx=".35" cy=".35" r=".7">
    <stop offset="0" stop-color="#fff7bf"/>
    <stop offset=".65" stop-color="#ffd867"/>
    <stop offset="1" stop-color="#f0aa1c"/>
  </radialGradient>
</defs>

  
    <ellipse cx="64" cy="112" rx="28" ry="8" fill="#a58d67" opacity=".22"/>
    <ellipse cx="49" cy="103" rx="10" ry="8" fill="url(#gnome-boot)" stroke="#5b4736" stroke-width="3.4"/>
    <ellipse cx="79" cy="103" rx="10" ry="8" fill="url(#gnome-boot)" stroke="#5b4736" stroke-width="3.4"/>
    <path d="M44 80c1-18 11-30 28-30 20 0 31 14 31 35v17H43z" fill="url(#gnome-coat)" stroke="#3f6f4f" stroke-width="4.6" stroke-linejoin="round"/>
    <path d="M50 88c7 6 15 9 24 9 8 0 16-2 24-8v14H50z" fill="#d9f1c9" opacity=".28"/>
    <ellipse cx="39" cy="82" rx="8.4" ry="12" fill="url(#gnome-sleeve)" stroke="#3f6f4f" stroke-width="4"/>
    <ellipse cx="89" cy="82" rx="8.4" ry="12" fill="url(#gnome-sleeve)" stroke="#3f6f4f" stroke-width="4"/>
    <circle cx="34" cy="88" r="5.2" fill="url(#gnome-skin)" stroke="#7c6050" stroke-width="3"/>
    <circle cx="94" cy="88" r="5.2" fill="url(#gnome-skin)" stroke="#7c6050" stroke-width="3"/>
    
    <path d="M43 49c2-21 10-34 21-39 15 4 24 18 28 39l1 5H42z" fill="url(#gnome-hat)" stroke="#60409b" stroke-width="5" stroke-linejoin="round"/>
    <ellipse cx="64" cy="50" rx="30" ry="8.5" fill="url(#gnome-brim)" stroke="#60409b" stroke-width="4.2"/>
    <path d="M67 13c6 2 11 7 15 15" fill="none" stroke="#ffe291" stroke-width="3" stroke-linecap="round"/>
    <circle cx="83" cy="22" r="4.6" fill="url(#gnome-star)" stroke="#b18217" stroke-width="2.2"/>
    
        <path d="M98 28l3 6 7 1-5 5 1 7-6-3-6 3 1-7-5-5 7-1z" fill="url(#gnome-star)" stroke="#b18217" stroke-width="2" stroke-linejoin="round"/>
      
    <path d="M64 48c-16 0-27 11-27 28 0 18 10 31 27 39 17-8 27-21 27-39 0-17-11-28-27-28z" fill="url(#gnome-beard)" stroke="#9c8563" stroke-width="4.2"/>
    <path d="M54 77c3 8 6 13 10 16 4-3 7-8 10-16" fill="#fffef8" opacity=".76"/>
    <ellipse cx="64" cy="58" rx="18" ry="15" fill="url(#gnome-skin)" stroke="#7c6050" stroke-width="4.2"/>
    <ellipse cx="64" cy="66" rx="6.2" ry="5.2" fill="#e5a08b" stroke="#7c6050" stroke-width="2.4"/>
    <ellipse cx="50" cy="68" rx="4.4" ry="2.4" fill="#f4a5b0" opacity=".38"/>
    <ellipse cx="78" cy="68" rx="4.4" ry="2.4" fill="#f4a5b0" opacity=".38"/>
    
    
          <path d="M49 60c4-4 8-4 12 0" fill="none" stroke="#1d2639" stroke-width="3.2" stroke-linecap="round"/>
          <path d="M67 60c4-4 8-4 12 0" fill="none" stroke="#1d2639" stroke-width="3.2" stroke-linecap="round"/>
        
    <path d="M56 74c5 5 11 5 16 0" fill="none" stroke="#6f4e3f" stroke-width="3.2" stroke-linecap="round"/>
  
    <path d="M64 34l4 4-4 5-4-5z" fill="#fff9d2" opacity=".72"/>
    <path d="M64 86l5 6-5 7-5-7z" fill="url(#gnome-star)" stroke="#b18217" stroke-width="2.2" stroke-linejoin="round"/>
    
</svg>
