<svg xmlns="http://www.w3.org/2000/svg" viewBox="0 0 128 128">
  <defs>
    <radialGradient id="fur-head" cx=".35" cy=".25" r=".9">
      <stop offset="0" stop-color="#ffd685"/>
      <stop offset=".55" stop-color="#f7ad1d"/>
      <stop offset="1" stop-color="#d97608"/>
    </radialGradient>
    <linearGradient id="fur-body" x1=".5" y1="0" x2=".5" y2="1">
      <stop offset="0" stop-color="#ffbd32"/>
      <stop offset=".68" stop-color="#ef9310"/>
      <stop offset="1" stop-color="#cb6906"/>
    </linearGradient>
    <linearGradient id="cream" x1=".5" y1="0" x2=".5" y2="1">
      <stop offset="0" stop-color="#fffdf4"/>
      <stop offset="1" stop-color="#f5d79c"/>
    </linearGradient>
  </defs>
  <ellipse cx="62" cy="110" rx="27" ry="8" fill="#d9a45f" opacity=".24"/>
  <path d="M89 70c18 7 28 19 24 31-4 10-18 11-34 4l-8-18 18-17z" fill="url(#fur-body)" stroke="#8f4e1f" stroke-width="4.2" stroke-linejoin="round"/>
  <path d="M88 75c10 4 16 10 14 17-2 6-9 7-18 4l-5-11 9-10z" fill="#fff0b3" opacity=".56"/>
  <ellipse cx="65" cy="84" rx="29" ry="22" fill="url(#fur-body)" stroke="#8f4e1f" stroke-width="5"/>
  <ellipse cx="62" cy="91" rx="20" ry="10" fill="#b95c08" opacity=".18"/>
  <ellipse cx="62" cy="82" rx="8" ry="11" fill="#c96d0d" opacity=".25"/>
  <ellipse cx="64" cy="89" rx="8.5" ry="14" fill="url(#fur-body)" stroke="#8f4e1f" stroke-width="4" transform="rotate(-14 64 89)"/>
  <ellipse cx="61" cy="89" rx="5" ry="10" fill="#ffd06b" opacity=".4" transform="rotate(-14 61 89)"/>
  <ellipse cx="58" cy="98" rx="6.8" ry="8.6" fill="url(#cream)" stroke="#8f4e1f" stroke-width="3.5" transform="rotate(-10 58 98)"/>
  <ellipse cx="52" cy="58" rx="24" ry="20" fill="url(#fur-head)" stroke="#8f4e1f" stroke-width="5"/>
  <ellipse cx="45" cy="49" rx="12" ry="7" fill="#fff0bd" opacity=".26"/>
  <path d="M56 45l3 4-3 4-3-4z" fill="#fff6c8" opacity=".66"/>
  <path d="M41 40 45 17l16 17" fill="url(#fur-head)" stroke="#8f4e1f" stroke-width="5" stroke-linejoin="round"/>
  <path d="M58 39 69 18l8 20" fill="url(#fur-head)" stroke="#8f4e1f" stroke-width="5" stroke-linejoin="round"/>
  <path d="M46 29 49 18l8 8" fill="#ffd59a"/>
  <path d="M63 29 69 18l5 10" fill="#ffd59a"/>
  <ellipse cx="45" cy="63" rx="13" ry="10" fill="url(#cream)"/>
  <path d="M34 63c2 8 8 12 15 12 7 0 12-4 14-12" fill="#ba6009" opacity=".12"/>
  <path d="M40 72c3 3 6 4 9 3" fill="none" stroke="#fffdf4" stroke-opacity=".82" stroke-width="2" stroke-linecap="round"/>
  <path d="M37 56c2-2 5-2 8 0" fill="none" stroke="#14324d" stroke-width="3.2" stroke-linecap="round"/>
  <ellipse cx="43" cy="66" rx="4.2" ry="2.4" fill="#f49c90" opacity=".4"/>
  <circle cx="33" cy="62" r="3.4" fill="#8f4e1f"/>
  <ellipse cx="37.5" cy="68" rx="5.2" ry="4.2" fill="#8f4e1f"/>
  <ellipse cx="50" cy="99" rx="7.2" ry="10.5" fill="url(#cream)" stroke="#8f4e1f" stroke-width="4"/>
  <ellipse cx="72" cy="98" rx="7.2" ry="10.5" fill="url(#cream)" stroke="#8f4e1f" stroke-width="4"/>
  <ellipse cx="50" cy="97" rx="1.7" ry="1.1" fill="#fffdf4" opacity=".82"/>
  <ellipse cx="72" cy="96" rx="1.7" ry="1.1" fill="#fffdf4" opacity=".82"/>
</svg>
