<svg xmlns="http://www.w3.org/2000/svg" viewBox="0 0 240 56" preserveAspectRatio="none">
  
<defs>
  <linearGradient id="orchard-wood" x1=".5" y1="0" x2=".5" y2="1">
    <stop offset="0" stop-color="#b77b48"/>
    <stop offset="1" stop-color="#825126"/>
  </linearGradient>
  <linearGradient id="orchard-leaf" x1=".24" y1=".1" x2=".8" y2=".9">
    <stop offset="0" stop-color="#e5f7b4"/>
    <stop offset=".5" stop-color="#96d167"/>
    <stop offset="1" stop-color="#4f9d49"/>
  </linearGradient>
  <radialGradient id="orchard-fruit" cx=".45" cy=".34" r=".72">
    <stop offset="0" stop-color="#fff0b0"/>
    <stop offset=".45" stop-color="#ffb54d"/>
    <stop offset="1" stop-color="#f07721"/>
  </radialGradient>
  <radialGradient id="orchard-glass" cx=".4" cy=".3" r=".86">
    <stop offset="0" stop-color="#f8ffff"/>
    <stop offset=".6" stop-color="#d5eff7"/>
    <stop offset="1" stop-color="#8ab9d1"/>
  </radialGradient>
</defs>

  
  <path d="M18 16C52 7 188 7 222 16" fill="none" stroke="#b9df86" stroke-width="8" stroke-linecap="round" opacity=".5"/>
  <path d="M18 22C56 13 184 13 222 22" fill="none" stroke="#ffe1a1" stroke-width="3.4" stroke-linecap="round" opacity=".82"/>
  <path d="M26 27c12-9 24-11 40-10M92 22c12 0 22 2 36 10M148 27c12-9 24-11 40-10M214 22c-10 1-18 4-26 10" fill="none" stroke="url(#orchard-leaf)" stroke-width="4" stroke-linecap="round" opacity=".8"/>
  <circle cx="52" cy="27" r="4.2" fill="url(#orchard-fruit)" stroke="#cc711f" stroke-width="1.6"/>
  <circle cx="116" cy="24" r="4.6" fill="url(#orchard-fruit)" stroke="#cc711f" stroke-width="1.6"/>
  <circle cx="180" cy="27" r="4.2" fill="url(#orchard-fruit)" stroke="#cc711f" stroke-width="1.6"/>
  <path d="M34 34c14 5 30 5 44 0M98 34c14 5 30 5 44 0M162 34c14 5 30 5 44 0" fill="none" stroke="#f3d58f" stroke-width="3" stroke-linecap="round" opacity=".74"/>
  
</svg>
