<svg xmlns="http://www.w3.org/2000/svg" viewBox="0 0 128 128">
  
<defs>
  <radialGradient id="bird-body" cx=".32" cy=".2" r=".95">
    <stop offset="0" stop-color="#ffe2bf"/>
    <stop offset=".55" stop-color="#ffb366"/>
    <stop offset="1" stop-color="#ed7a24"/>
  </radialGradient>
  <linearGradient id="bird-wing" x1=".2" y1=".2" x2=".9" y2=".9">
    <stop offset="0" stop-color="#fff1c7"/>
    <stop offset=".55" stop-color="#ffc46d"/>
    <stop offset="1" stop-color="#f08a30"/>
  </linearGradient>
  <linearGradient id="bird-belly" x1=".5" y1="0" x2=".5" y2="1">
    <stop offset="0" stop-color="#fffdf7"/>
    <stop offset="1" stop-color="#ffe0a5"/>
  </linearGradient>
  <linearGradient id="bird-beak" x1=".3" y1="0" x2=".8" y2="1">
    <stop offset="0" stop-color="#fff2a3"/>
    <stop offset=".55" stop-color="#ffc14b"/>
    <stop offset="1" stop-color="#eb8e16"/>
  </linearGradient>
  <linearGradient id="bird-feet" x1=".5" y1="0" x2=".5" y2="1">
    <stop offset="0" stop-color="#f3a563"/>
    <stop offset="1" stop-color="#c96b2c"/>
  </linearGradient>
  <radialGradient id="bird-sparkle" cx=".35" cy=".35" r=".7">
    <stop offset="0" stop-color="#fff8c4"/>
    <stop offset=".6" stop-color="#ffd866"/>
    <stop offset="1" stop-color="#f0a51d"/>
  </radialGradient>
</defs>

  
    <ellipse cx="64" cy="112" rx="28" ry="8" fill="#dba66d" opacity=".22"/>
    <path d="M50 104c-1-7 2-12 8-15" fill="none" stroke="#cb742e" stroke-width="3.2" stroke-linecap="round"/>
    <path d="M78 104c1-7-2-12-8-15" fill="none" stroke="#cb742e" stroke-width="3.2" stroke-linecap="round"/>
    <ellipse cx="49" cy="106" rx="6" ry="3.6" fill="url(#bird-feet)"/>
    <ellipse cx="79" cy="106" rx="6" ry="3.6" fill="url(#bird-feet)"/>
    <path d="M53 94c4 3 8 5 11 6 3-1 7-3 11-6l9 8H44z" fill="#d66f28" opacity=".34"/>
    <path d="M40 74c-15 1-24 11-24 23 10 1 22-4 31-13 3-3 6-7 8-12-4-3-9-4-15-2z" fill="url(#bird-wing)" stroke="#a46020" stroke-width="4.2" stroke-linejoin="round"/>
    <path d="M88 74c15 1 24 11 24 23-10 1-22-4-31-13-3-3-6-7-8-12 4-3 9-4 15-2z" fill="url(#bird-wing)" stroke="#a46020" stroke-width="4.2" stroke-linejoin="round"/>
    <ellipse cx="64" cy="80" rx="29" ry="24" fill="url(#bird-body)" stroke="#a46020" stroke-width="5"/>
    <ellipse cx="64" cy="54" rx="22" ry="21" fill="url(#bird-body)" stroke="#a46020" stroke-width="5"/>
    <ellipse cx="64" cy="79" rx="18" ry="22" fill="url(#bird-belly)"/>
    <path d="M53 88c3 7 7 12 11 15 4-3 8-8 11-15" fill="#fff4c7" opacity=".58"/>
    <path d="M64 33c3-9 8-13 15-14-2 8-1 14 2 19" fill="none" stroke="#f7d279" stroke-width="4" stroke-linecap="round"/>
    <path d="M60 32c1-9 5-14 11-17 0 8 2 14 6 18" fill="none" stroke="#ff9db0" stroke-width="4" stroke-linecap="round"/>
    <path d="M68 32c6-6 12-8 18-6-4 6-5 12-4 18" fill="none" stroke="#95e2a0" stroke-width="4" stroke-linecap="round"/>
    <path d="M39 72c4-5 8-8 13-10" fill="none" stroke="#ffe8b5" stroke-opacity=".58" stroke-width="2.8" stroke-linecap="round"/>
    <path d="M89 72c-4-5-8-8-13-10" fill="none" stroke="#ffe8b5" stroke-opacity=".58" stroke-width="2.8" stroke-linecap="round"/>
    
        <path d="M49 56c4-4 8-4 12 0" fill="none" stroke="#213046" stroke-width="3.2" stroke-linecap="round"/>
        <path d="M67 56c4-4 8-4 12 0" fill="none" stroke="#213046" stroke-width="3.2" stroke-linecap="round"/>
      
    <path d="M64 61 76 57 64 53 52 57z" fill="url(#bird-beak)" stroke="#a85f18" stroke-width="3" stroke-linejoin="round"/>
    <ellipse cx="47" cy="66" rx="4.2" ry="2.4" fill="#f5a7b8" opacity=".36"/>
    <ellipse cx="81" cy="66" rx="4.2" ry="2.4" fill="#f5a7b8" opacity=".36"/>
    <path d="M96 27l3 6 7 1-5 5 1 7-6-3-6 3 1-7-5-5 7-1z" fill="url(#bird-sparkle)" stroke="#b17a1d" stroke-width="2" stroke-linejoin="round"/>
    
</svg>
