<svg xmlns="http://www.w3.org/2000/svg" viewBox="0 0 280 92" preserveAspectRatio="none">
  
<defs>
  <linearGradient id="orchard-wood" x1=".5" y1="0" x2=".5" y2="1">
    <stop offset="0" stop-color="#b77b48"/>
    <stop offset="1" stop-color="#825126"/>
  </linearGradient>
  <linearGradient id="orchard-leaf" x1=".24" y1=".1" x2=".8" y2=".9">
    <stop offset="0" stop-color="#e5f7b4"/>
    <stop offset=".5" stop-color="#96d167"/>
    <stop offset="1" stop-color="#4f9d49"/>
  </linearGradient>
  <radialGradient id="orchard-fruit" cx=".45" cy=".34" r=".72">
    <stop offset="0" stop-color="#fff0b0"/>
    <stop offset=".45" stop-color="#ffb54d"/>
    <stop offset="1" stop-color="#f07721"/>
  </radialGradient>
  <radialGradient id="orchard-glass" cx=".4" cy=".3" r=".86">
    <stop offset="0" stop-color="#f8ffff"/>
    <stop offset=".6" stop-color="#d5eff7"/>
    <stop offset="1" stop-color="#8ab9d1"/>
  </radialGradient>
</defs>

  
  <path d="M18 18C56 8 224 8 262 18" fill="none" stroke="#b9df86" stroke-width="10" stroke-linecap="round" opacity=".52"/>
  <path d="M18 26C58 16 222 16 262 26" fill="none" stroke="#ffe2a6" stroke-width="4" stroke-linecap="round" opacity=".84"/>
  <path d="M28 34c14-10 28-12 46-11M104 22c14 0 26 4 42 12M162 34c14-10 28-12 46-11M252 23c-12 1-22 5-32 11" fill="none" stroke="url(#orchard-leaf)" stroke-width="5" stroke-linecap="round" opacity=".82"/>
  <circle cx="58" cy="34" r="4.8" fill="url(#orchard-fruit)" stroke="#cc711f" stroke-width="1.8"/>
  <circle cx="138" cy="28" r="5.2" fill="url(#orchard-fruit)" stroke="#cc711f" stroke-width="1.8"/>
  <circle cx="216" cy="34" r="4.8" fill="url(#orchard-fruit)" stroke="#cc711f" stroke-width="1.8"/>
  <path d="M36 46c16 6 34 6 50 0M114 46c16 6 34 6 50 0M192 46c16 6 34 6 50 0" fill="none" stroke="#f3d58f" stroke-width="4" stroke-linecap="round" opacity=".74"/>
  <path d="M64 48c-4 8-6 14-8 22M140 48c0 10-2 16-6 26M214 48c4 8 6 14 8 22" fill="none" stroke="#79b05c" stroke-width="4" stroke-linecap="round" opacity=".68"/>
  
</svg>
