<svg xmlns="http://www.w3.org/2000/svg" viewBox="0 0 96 96">
  
<defs>
  <linearGradient id="prairie-post" x1=".5" y1="0" x2=".5" y2="1">
    <stop offset="0" stop-color="#f4f7ff"/>
    <stop offset="1" stop-color="#b9cce8"/>
  </linearGradient>
  <linearGradient id="prairie-leaf" x1=".3" y1=".1" x2=".78" y2=".94">
    <stop offset="0" stop-color="#d6f6be"/>
    <stop offset=".5" stop-color="#85c86d"/>
    <stop offset="1" stop-color="#4a9758"/>
  </linearGradient>
  <radialGradient id="prairie-petal" cx=".45" cy=".32" r=".72">
    <stop offset="0" stop-color="#f8fbff"/>
    <stop offset=".46" stop-color="#8fb8ff"/>
    <stop offset="1" stop-color="#4966db"/>
  </radialGradient>
  <radialGradient id="prairie-firefly" cx=".5" cy=".45" r=".62">
    <stop offset="0" stop-color="#fff8d8"/>
    <stop offset=".6" stop-color="#bce9ff" stop-opacity=".74"/>
    <stop offset="1" stop-color="#bce9ff" stop-opacity="0"/>
  </radialGradient>
</defs>

  
  <ellipse cx="48" cy="88" rx="22" ry="5" fill="#5570a6" opacity=".14"/>
  <rect x="44" y="26" width="8" height="52" rx="4" fill="url(#prairie-post)" stroke="#8ea2c2" stroke-width="2.8"/>
  <circle cx="48" cy="38" r="8" fill="#f6fbff" stroke="#8ea2c2" stroke-width="2.8"/>
  <path d="M48 23v13M48 40v15M33 38h13M50 38h15" fill="none" stroke="#dce9ff" stroke-width="4" stroke-linecap="round"/>
  <path d="M37 27l9 9M59 27l-9 9M37 49l9-9M59 49l-9-9" fill="none" stroke="#dce9ff" stroke-width="4" stroke-linecap="round"/>
  <path d="M28 78h40" fill="none" stroke="#b9cce8" stroke-width="5" stroke-linecap="round"/>
  <circle cx="67" cy="30" r="11" fill="url(#prairie-firefly)" opacity=".76"/>
  <circle cx="67" cy="30" r="3.3" fill="#fff9d7"/>
  
</svg>
