<svg xmlns="http://www.w3.org/2000/svg" viewBox="0 0 96 96">
  
<defs>
  <linearGradient id="meadow-wood" x1=".5" y1="0" x2=".5" y2="1">
    <stop offset="0" stop-color="#a27a55"/>
    <stop offset="1" stop-color="#6c4d35"/>
  </linearGradient>
  <linearGradient id="meadow-stone" x1=".22" y1=".08" x2=".88" y2=".92">
    <stop offset="0" stop-color="#f2f5f0"/>
    <stop offset=".52" stop-color="#cfd9d3"/>
    <stop offset="1" stop-color="#8d9b95"/>
  </linearGradient>
  <linearGradient id="meadow-wool" x1=".4" y1="0" x2=".6" y2="1">
    <stop offset="0" stop-color="#ffffff"/>
    <stop offset="1" stop-color="#e9efe9"/>
  </linearGradient>
</defs>

  
  <ellipse cx="48" cy="89" rx="24" ry="5" fill="#5d6b58" opacity=".14"/>
  <path d="M24 82V52c0-18 10-30 24-30s24 12 24 30v30" fill="none" stroke="url(#meadow-stone)" stroke-width="8" stroke-linecap="round"/>
  <path d="M24 52c7-7 15-10 24-10 9 0 17 3 24 10" fill="none" stroke="#8d9b95" stroke-width="4.6" stroke-linecap="round"/>
  <path d="M18 82h60" fill="none" stroke="#87968f" stroke-width="6" stroke-linecap="round"/>
  <path d="M24 40c7-8 14-11 24-11 10 0 17 3 24 11" fill="none" stroke="#7fc28e" stroke-width="4" stroke-linecap="round" opacity=".78"/>
  <path d="M34 22c-8 0-14 4.5-14 11 0 6.2 5.6 10.6 14 10.6 7.2 0 12.8-2.5 16.8-7-2.1-8.2-8.1-14.6-16.8-14.6z" fill="url(#meadow-wool)" stroke="#d2ddd5" stroke-width="2.8"/>
  <path d="M62 22c8.4 0 14 5.1 14 12 0 6-5.3 10-13.2 10-7.1 0-12.7-2.6-16.9-7.3 2.4-8.2 8.2-14.7 16.1-14.7z" fill="url(#meadow-wool)" stroke="#d2ddd5" stroke-width="2.8"/>
  <circle cx="37" cy="52" r="3.4" fill="#e7b4ff" stroke="#b47cd9" stroke-width="1.8"/>
  <circle cx="48" cy="45" r="3.4" fill="#f8f4ff" stroke="#b47cd9" stroke-width="1.8"/>
  <circle cx="59" cy="52" r="3.4" fill="#e7b4ff" stroke="#b47cd9" stroke-width="1.8"/>
  <path d="M27 63c5-4 10-4 15 0M54 63c5-4 10-4 15 0" fill="none" stroke="#eef7ef" stroke-width="2.6" stroke-linecap="round" opacity=".82"/>
  
</svg>
