<svg xmlns="http://www.w3.org/2000/svg" viewBox="0 0 64 64">
  
<defs>
  <linearGradient id="butterfly-wing-top" x1=".18" y1=".14" x2=".88" y2=".88">
    <stop offset="0" stop-color="#ffd2f1"/>
    <stop offset=".48" stop-color="#d3a7ff"/>
    <stop offset="1" stop-color="#7c71ff"/>
  </linearGradient>
  <linearGradient id="butterfly-wing-bottom" x1=".22" y1=".18" x2=".86" y2=".92">
    <stop offset="0" stop-color="#fff0a4"/>
    <stop offset=".42" stop-color="#aaf6cb"/>
    <stop offset="1" stop-color="#7cd6ff"/>
  </linearGradient>
  <linearGradient id="butterfly-body" x1=".5" y1="0" x2=".5" y2="1">
    <stop offset="0" stop-color="#5d4b9b"/>
    <stop offset="1" stop-color="#2d245e"/>
  </linearGradient>
  <radialGradient id="butterfly-glow" cx=".5" cy=".36" r=".82">
    <stop offset="0" stop-color="#fffaf6"/>
    <stop offset=".54" stop-color="#ffdbf7" stop-opacity=".72"/>
    <stop offset="1" stop-color="#ffdbf7" stop-opacity="0"/>
  </radialGradient>
</defs>

  
    <ellipse cx="32" cy="56" rx="12" ry="4" fill="#d4b8ff" opacity=".24"/>
    <circle cx="32" cy="28" r="18" fill="url(#butterfly-glow)" opacity=".95"/>
    <path d="M29 18c-10-6-20-5-24 3 6 8 17 11 29 11-4-4-6-8-5-14z" fill="url(#butterfly-wing-top)" stroke="#6857a6" stroke-width="2.2" stroke-linejoin="round"/>
    <path d="M35 18c10-6 20-5 24 3-6 8-17 11-29 11 4-4 6-8 5-14z" fill="url(#butterfly-wing-top)" stroke="#6857a6" stroke-width="2.2" stroke-linejoin="round"/>
    <path d="M27 32c-9 1-15 6-16 13 8 3 16 1 23-5-4-2-6-4-7-8z" fill="url(#butterfly-wing-bottom)" stroke="#5caac8" stroke-width="2" stroke-linejoin="round"/>
    <path d="M37 32c9 1 15 6 16 13-8 3-16 1-23-5 4-2 6-4 7-8z" fill="url(#butterfly-wing-bottom)" stroke="#5caac8" stroke-width="2" stroke-linejoin="round"/>
    <path d="M32 20c-4 0-6 3-6 8v8c0 6 2.2 10.5 6 13.8 3.8-3.3 6-7.8 6-13.8v-8c0-5-2-8-6-8z" fill="url(#butterfly-body)" stroke="#1b1735" stroke-width="2"/>
    <path d="M29 19c-1.5-4.3-3.8-6.4-7-8.5M35 19c1.5-4.3 3.8-6.4 7-8.5" fill="none" stroke="#4b3d79" stroke-width="2" stroke-linecap="round"/>
    <circle cx="23.2" cy="10.2" r="1.7" fill="#ffd7f3"/>
    <circle cx="40.8" cy="10.2" r="1.7" fill="#ffd7f3"/>
    
      <ellipse cx="27.6" cy="31" rx="1.7" ry="2.4" fill="#ffffff"/>
      <ellipse cx="36.4" cy="31" rx="1.7" ry="2.4" fill="#ffffff"/>
      <circle cx="28" cy="30.2" r=".55" fill="#23324d"/>
      <circle cx="36.8" cy="30.2" r=".55" fill="#23324d"/>
    
    <path d="M29 36c1.8 1.6 4.2 1.6 6 0" fill="none" stroke="#ffffff" stroke-width="1.6" stroke-linecap="round" opacity=".88"/>
    <ellipse cx="32" cy="44" rx="4.6" ry="2" fill="#ffffff" opacity=".16"/>
    <path d="M51 18l1.9 2.8-1.9 2.8-1.9-2.8zM14 22l1.7 2.5-1.7 2.5-1.7-2.5z" fill="#fff9ff" opacity=".88"/>
    
</svg>
