<svg xmlns="http://www.w3.org/2000/svg" viewBox="0 0 64 64">
  
<defs>
  <linearGradient id="butterfly-wing-top" x1=".18" y1=".14" x2=".88" y2=".88">
    <stop offset="0" stop-color="#ffd2f1"/>
    <stop offset=".48" stop-color="#d3a7ff"/>
    <stop offset="1" stop-color="#7c71ff"/>
  </linearGradient>
  <linearGradient id="butterfly-wing-bottom" x1=".22" y1=".18" x2=".86" y2=".92">
    <stop offset="0" stop-color="#fff0a4"/>
    <stop offset=".42" stop-color="#aaf6cb"/>
    <stop offset="1" stop-color="#7cd6ff"/>
  </linearGradient>
  <linearGradient id="butterfly-body" x1=".5" y1="0" x2=".5" y2="1">
    <stop offset="0" stop-color="#5d4b9b"/>
    <stop offset="1" stop-color="#2d245e"/>
  </linearGradient>
  <radialGradient id="butterfly-glow" cx=".5" cy=".36" r=".82">
    <stop offset="0" stop-color="#fffaf6"/>
    <stop offset=".54" stop-color="#ffdbf7" stop-opacity=".72"/>
    <stop offset="1" stop-color="#ffdbf7" stop-opacity="0"/>
  </radialGradient>
</defs>

  
    <ellipse cx="31" cy="56" rx="12" ry="4" fill="#d4b8ff" opacity=".22"/>
    <circle cx="30" cy="29" r="16" fill="url(#butterfly-glow)" opacity=".68"/>
    <path d="M22 20c-13-8-19 0-17 10 9 5 18 5 26 1-5-2-8-5-9-11z" fill="url(#butterfly-wing-top)" stroke="#6857a6" stroke-width="2.1" stroke-linejoin="round"/>
    <path d="M30 24c-8-5-12 2-11 9 7 3 13 2 19-2-4-1-6-3-8-7z" fill="#f9c2f1" stroke="#8d79cf" stroke-width="2" stroke-linejoin="round"/>
    <path d="M25 34c-9 3-12 9-10 14 7 2 13 0 19-5-4-2-6-4-9-9z" fill="url(#butterfly-wing-bottom)" stroke="#5caac8" stroke-width="2" stroke-linejoin="round"/>
    <path d="M31 21c-4 0-6.2 3.4-6.2 8.8 0 7 2.8 12.6 7.2 17 3.8-3.5 5.8-8.8 5.8-15.5 0-6.7-2.4-10.3-6.8-10.3z" fill="url(#butterfly-body)" stroke="#1b1735" stroke-width="2"/>
    <path d="M31 20c-1.4-4.3-3.2-6.5-6.2-8.9" fill="none" stroke="#4b3d79" stroke-width="2" stroke-linecap="round"/>
    <circle cx="24.6" cy="10.2" r="1.7" fill="#ffd7f3"/>
    
      <ellipse cx="37" cy="31" rx="1.8" ry="2.4" fill="#ffffff"/>
      <circle cx="37.4" cy="30.2" r=".55" fill="#23324d"/>
    
    <path d="M35 36c1.7 1.4 3.3 1.4 5 0" fill="none" stroke="#ffffff" stroke-width="1.6" stroke-linecap="round" opacity=".88"/>
    
  
</svg>
