<svg xmlns="http://www.w3.org/2000/svg" viewBox="0 0 64 64">
  
<defs>
  <radialGradient id="firefly-glow-core" cx=".5" cy=".42" r=".82">
    <stop offset="0" stop-color="#f8fdff"/>
    <stop offset=".36" stop-color="#bfe7ff"/>
    <stop offset=".68" stop-color="#9ef0d8" stop-opacity=".72"/>
    <stop offset="1" stop-color="#9ef0d8" stop-opacity="0"/>
  </radialGradient>
  <linearGradient id="firefly-body" x1=".28" y1=".14" x2=".82" y2=".86">
    <stop offset="0" stop-color="#6fc8ff"/>
    <stop offset=".48" stop-color="#4f8dff"/>
    <stop offset="1" stop-color="#3d54b8"/>
  </linearGradient>
  <linearGradient id="firefly-belly" x1=".5" y1="0" x2=".5" y2="1">
    <stop offset="0" stop-color="#f8ffbe"/>
    <stop offset=".58" stop-color="#aef0a1"/>
    <stop offset="1" stop-color="#5fd2b6"/>
  </linearGradient>
</defs>

  <g transform="translate(64 0) scale(-1 1)">
    <ellipse cx="31" cy="56" rx="11.6" ry="4" fill="#8bd4ff" opacity=".24"/>
    <circle cx="32" cy="30" r="17" fill="url(#firefly-glow-core)" opacity=".7"/>
    <path d="M24 24c-9-7-16-1-15 8 7 3 13 1 19-4-2-1-3-3-4-4z" fill="#f7fcff" stroke="#9cc8ea" stroke-width="2" stroke-linejoin="round" opacity=".86"/>
    <ellipse cx="33" cy="31" rx="9" ry="10.2" fill="url(#firefly-body)" stroke="#28438b" stroke-width="2.2"/>
    <ellipse cx="35.5" cy="39" rx="7.2" ry="5.8" fill="url(#firefly-belly)" stroke="#4ca58e" stroke-width="2"/>
    <path d="M31 21c-1.3-4-3.1-6.2-6.1-8.2" fill="none" stroke="#5f8cff" stroke-width="2" stroke-linecap="round"/>
    <circle cx="24.6" cy="12.6" r="1.4" fill="#c7f6ff"/>
    <path d="M36 29c1.6-1.4 3.2-1.4 4.8 0" fill="none" stroke="#ffffff" stroke-width="1.7" stroke-linecap="round"/>
    <path d="M36 33.6c1.4 1.3 3 1.3 4.4 0" fill="none" stroke="#ffffff" stroke-width="1.5" stroke-linecap="round" opacity=".92"/>
    
  </g>
</svg>
