<svg xmlns="http://www.w3.org/2000/svg" viewBox="0 0 64 64">
  
<defs>
  <radialGradient id="firefly-glow-core" cx=".5" cy=".42" r=".82">
    <stop offset="0" stop-color="#f8fdff"/>
    <stop offset=".36" stop-color="#bfe7ff"/>
    <stop offset=".68" stop-color="#9ef0d8" stop-opacity=".72"/>
    <stop offset="1" stop-color="#9ef0d8" stop-opacity="0"/>
  </radialGradient>
  <linearGradient id="firefly-body" x1=".28" y1=".14" x2=".82" y2=".86">
    <stop offset="0" stop-color="#6fc8ff"/>
    <stop offset=".48" stop-color="#4f8dff"/>
    <stop offset="1" stop-color="#3d54b8"/>
  </linearGradient>
  <linearGradient id="firefly-belly" x1=".5" y1="0" x2=".5" y2="1">
    <stop offset="0" stop-color="#f8ffbe"/>
    <stop offset=".58" stop-color="#aef0a1"/>
    <stop offset="1" stop-color="#5fd2b6"/>
  </linearGradient>
</defs>

  
    <ellipse cx="32" cy="56" rx="11.6" ry="4" fill="#8bd4ff" opacity=".24"/>
    <circle cx="32" cy="30" r="18" fill="url(#firefly-glow-core)" opacity=".74"/>
    <path d="M24 24c-8-7-16-1-15 8 7 3 14 1 20-5-3-1-4-2-5-3z" fill="#f7fcff" stroke="#9cc8ea" stroke-width="2" stroke-linejoin="round" opacity=".86"/>
    <path d="M40 24c8-7 16-1 15 8-7 3-14 1-20-5 3-1 4-2 5-3z" fill="#f7fcff" stroke="#9cc8ea" stroke-width="2" stroke-linejoin="round" opacity=".86"/>
    <ellipse cx="32" cy="31" rx="9.2" ry="10.4" fill="url(#firefly-body)" stroke="#28438b" stroke-width="2.2"/>
    <ellipse cx="32" cy="39" rx="8.2" ry="6.2" fill="url(#firefly-belly)" stroke="#4ca58e" stroke-width="2"/>
    <path d="M29 21c-1.4-4.2-3.6-6.4-6.8-8.3M35 21c1.4-4.2 3.6-6.4 6.8-8.3" fill="none" stroke="#5f8cff" stroke-width="2" stroke-linecap="round"/>
    <circle cx="21.6" cy="12.4" r="1.4" fill="#c7f6ff"/>
    <circle cx="42.4" cy="12.4" r="1.4" fill="#c7f6ff"/>
    
      <ellipse cx="28.4" cy="28.8" rx="1.5" ry="2.1" fill="#ffffff"/>
      <ellipse cx="36.6" cy="28.8" rx="1.5" ry="2.1" fill="#ffffff"/>
      <circle cx="28.8" cy="28.1" r=".45" fill="#14324d"/>
      <circle cx="37" cy="28.1" r=".45" fill="#14324d"/>
    
    <path d="M29.4 33.8c1.6 1.4 3.6 1.4 5.2 0" fill="none" stroke="#ffffff" stroke-width="1.5" stroke-linecap="round" opacity=".92"/>
    
    <circle cx="14" cy="22" r="2.1" fill="#d8fff4" opacity=".84"/>
    <circle cx="49" cy="18" r="1.8" fill="#d8fff4" opacity=".84"/>
    
</svg>
