<svg xmlns="http://www.w3.org/2000/svg" viewBox="0 0 96 96">
  
<defs>
  <linearGradient id="bamboo-wood" x1=".5" y1="0" x2=".5" y2="1">
    <stop offset="0" stop-color="#a77a56"/>
    <stop offset="1" stop-color="#6f4c33"/>
  </linearGradient>
  <linearGradient id="bamboo-lantern" x1=".5" y1="0" x2=".5" y2="1">
    <stop offset="0" stop-color="#fff7d1"/>
    <stop offset=".55" stop-color="#ffd67a"/>
    <stop offset="1" stop-color="#f29f38"/>
  </linearGradient>
  <radialGradient id="bamboo-glow" cx=".5" cy=".46" r=".62">
    <stop offset="0" stop-color="#fff8da"/>
    <stop offset=".58" stop-color="#ffd27c" stop-opacity=".72"/>
    <stop offset="1" stop-color="#ffd27c" stop-opacity="0"/>
  </radialGradient>
</defs>

  
  <ellipse cx="48" cy="86" rx="24" ry="5" fill="#5a4a3d" opacity=".18"/>
  <ellipse cx="48" cy="62" rx="28" ry="11" fill="#7d5a40"/>
  <ellipse cx="48" cy="58" rx="31" ry="13" fill="url(#bamboo-wood)" stroke="#5b3b27" stroke-width="3"/>
  <rect x="43" y="61" width="10" height="18" rx="4" fill="#6d4a31"/>
  <rect x="25" y="72" width="46" height="7" rx="3.5" fill="#654731" opacity=".92"/>
  <circle cx="34" cy="53" r="7" fill="url(#bamboo-glow)" opacity=".85"/>
  <rect x="30" y="49" width="8" height="7" rx="2" fill="#f5f0e0" stroke="#8d6c4a" stroke-width="2"/>
  <path d="M38 52h4c2.8 0 4.4 1.6 4.4 4 0 1.8-1.1 3.2-2.9 3.7" fill="none" stroke="#8d6c4a" stroke-width="2.2" stroke-linecap="round"/>
  <path d="M57 36h10v18c0 3.8-2.1 6-5 6s-5-2.2-5-6z" fill="url(#bamboo-lantern)" stroke="#7b5736" stroke-width="3" stroke-linejoin="round"/>
  <rect x="60" y="29" width="4" height="8" rx="2" fill="#7a5b3f"/>
  <circle cx="62" cy="47" r="12" fill="url(#bamboo-glow)" opacity=".72"/>
  <path d="M22 45c8-10 16-14 24-14 8 0 17 4 27 14" fill="none" stroke="#8bb56b" stroke-width="4" stroke-linecap="round" opacity=".72"/>
  
</svg>
