<svg xmlns="http://www.w3.org/2000/svg" viewBox="0 0 240 56" preserveAspectRatio="none">
  
<defs>
  <linearGradient id="story-bark" x1=".5" y1="0" x2=".5" y2="1">
    <stop offset="0" stop-color="#9d734d"/>
    <stop offset="1" stop-color="#6d4f39"/>
  </linearGradient>
  <linearGradient id="story-leaves" x1=".18" y1=".08" x2=".84" y2=".92">
    <stop offset="0" stop-color="#dff4bb"/>
    <stop offset=".48" stop-color="#8dcf7e"/>
    <stop offset="1" stop-color="#4d9a68"/>
  </linearGradient>
  <linearGradient id="story-cap" x1=".28" y1=".06" x2=".8" y2=".92">
    <stop offset="0" stop-color="#ffcfb0"/>
    <stop offset=".55" stop-color="#ef8b6d"/>
    <stop offset="1" stop-color="#d76a59"/>
  </linearGradient>
  <radialGradient id="story-window" cx=".5" cy=".5" r=".62">
    <stop offset="0" stop-color="#fff8d3"/>
    <stop offset="1" stop-color="#ffc864"/>
  </radialGradient>
</defs>

  
  <path d="M18 17C52 8 188 8 222 17" fill="none" stroke="#cfe6a7" stroke-width="8" stroke-linecap="round" opacity=".48"/>
  <path d="M18 23C56 14 184 14 222 23" fill="none" stroke="#f6ecd8" stroke-width="3.4" stroke-linecap="round" opacity=".82"/>
  <path d="M26 28c10-7 22-7 32 0M82 28c10-7 22-7 32 0M138 28c10-7 22-7 32 0M194 28c10-7 22-7 32 0" fill="none" stroke="#8bc17a" stroke-width="3.2" stroke-linecap="round" opacity=".72"/>
  <path d="M36 16c6 5 12 6 18 3M112 14c7 6 13 7 20 4M188 16c6 5 12 6 18 3" fill="none" stroke="#fff3d4" stroke-width="2.8" stroke-linecap="round" opacity=".7"/>
  <path d="M56 28l2 4 4.4.7-3.2 3 .8 4.4-4-2.1-4 2.1.8-4.4-3.2-3 4.4-.7z" fill="#ffe6a5" stroke="#d7ac55" stroke-width="1.4" stroke-linejoin="round"/>
  <path d="M122 24l1.8 3.4 3.8.6-2.8 2.6.6 3.8-3.4-1.8-3.4 1.8.6-3.8-2.8-2.6 3.8-.6z" fill="#fff0bd" stroke="#d7ac55" stroke-width="1.2" stroke-linejoin="round"/>
  <path d="M188 28l2 4 4.4.7-3.2 3 .8 4.4-4-2.1-4 2.1.8-4.4-3.2-3 4.4-.7z" fill="#ffe6a5" stroke="#d7ac55" stroke-width="1.4" stroke-linejoin="round"/>
  
</svg>
