<svg xmlns="http://www.w3.org/2000/svg" viewBox="0 0 96 96">
  
<defs>
  <linearGradient id="meadow-wood" x1=".5" y1="0" x2=".5" y2="1">
    <stop offset="0" stop-color="#a27a55"/>
    <stop offset="1" stop-color="#6c4d35"/>
  </linearGradient>
  <linearGradient id="meadow-stone" x1=".22" y1=".08" x2=".88" y2=".92">
    <stop offset="0" stop-color="#f2f5f0"/>
    <stop offset=".52" stop-color="#cfd9d3"/>
    <stop offset="1" stop-color="#8d9b95"/>
  </linearGradient>
  <linearGradient id="meadow-wool" x1=".4" y1="0" x2=".6" y2="1">
    <stop offset="0" stop-color="#ffffff"/>
    <stop offset="1" stop-color="#e9efe9"/>
  </linearGradient>
</defs>

  
  <ellipse cx="48" cy="87" rx="26" ry="5" fill="#536253" opacity=".15"/>
  <path d="M23 71c0-16 9-31 25-31s25 15 25 31" fill="none" stroke="#9aa9a2" stroke-width="5" stroke-linecap="round"/>
  <rect x="16" y="28" width="18" height="44" rx="8" fill="url(#meadow-stone)" stroke="#7e8f88" stroke-width="3"/>
  <rect x="39" y="18" width="18" height="54" rx="8" fill="url(#meadow-stone)" stroke="#7e8f88" stroke-width="3"/>
  <rect x="62" y="28" width="18" height="44" rx="8" fill="url(#meadow-stone)" stroke="#7e8f88" stroke-width="3"/>
  <path d="M24 40h5M24 49h4M45 31h6M45 44h5M69 39h5M67 50h6" fill="none" stroke="#f7faf7" stroke-width="2.4" stroke-linecap="round" opacity=".72"/>
  
</svg>
