<svg xmlns="http://www.w3.org/2000/svg" viewBox="0 0 64 64">
  <defs>
    <radialGradient id="wool" cx=".64" cy=".28" r=".95">
      <stop offset="0" stop-color="#ffffff"/>
      <stop offset=".62" stop-color="#f3fbf7"/>
      <stop offset="1" stop-color="#d8eee5"/>
    </radialGradient>
    <linearGradient id="face" x1=".65" y1="0" x2=".3" y2="1">
      <stop offset="0" stop-color="#d4dce4"/>
      <stop offset="1" stop-color="#95a3af"/>
    </linearGradient>
  </defs>
  <ellipse cx="34" cy="54" rx="14" ry="4.8" fill="#bfded3" opacity=".24"/>
  <path d="M17 46c6-1 10-3 14-8M10 51c8-1 14-4 19-9" fill="none" stroke="#b8f0df" stroke-width="2.2" stroke-linecap="round"/>
  <circle cx="21" cy="32" r="9" fill="url(#wool)" stroke="#6f8890" stroke-width="2.3"/>
  <circle cx="31" cy="23" r="10" fill="url(#wool)" stroke="#6f8890" stroke-width="2.3"/>
  <circle cx="43" cy="31" r="9" fill="url(#wool)" stroke="#6f8890" stroke-width="2.3"/>
  <circle cx="29" cy="38" r="10" fill="url(#wool)" stroke="#6f8890" stroke-width="2.3"/>
  <path d="M21 21c-1.2-5 .4-8.4 4-10-.1 4 1.1 7.2 3.8 9.8" fill="none" stroke="#d9b98c" stroke-width="3.4" stroke-linecap="round"/>
  <ellipse cx="34" cy="34" rx="10" ry="11" fill="url(#face)" stroke="#6f8890" stroke-width="2.7"/>
  <ellipse cx="38" cy="39" rx="6.6" ry="4.5" fill="#edf4f7"/>
  <circle cx="38" cy="31.5" r="1.8" fill="#17324d"/>
  <ellipse cx="40" cy="38.5" rx="1.8" ry="1.4" fill="#6c7b87"/>
  <path d="M38.8 42c1.8 1.8 3.4 1.6 5.4-.2" fill="none" stroke="#6c7b87" stroke-width="1.8" stroke-linecap="round"/>
  <ellipse cx="27" cy="31" rx="4.6" ry="6.6" fill="#ffffff" opacity=".24"/>
  <path d="M7 42c8 2 15 2 22 1M6 48c11 4 21 5 32 2" fill="none" stroke="#88d2bd" stroke-width="2.4" stroke-linecap="round" opacity=".82"/>
</svg>
