<svg xmlns="http://www.w3.org/2000/svg" viewBox="0 0 96 96">
  
<defs>
  <linearGradient id="story-bark" x1=".5" y1="0" x2=".5" y2="1">
    <stop offset="0" stop-color="#9d734d"/>
    <stop offset="1" stop-color="#6d4f39"/>
  </linearGradient>
  <linearGradient id="story-leaves" x1=".18" y1=".08" x2=".84" y2=".92">
    <stop offset="0" stop-color="#dff4bb"/>
    <stop offset=".48" stop-color="#8dcf7e"/>
    <stop offset="1" stop-color="#4d9a68"/>
  </linearGradient>
  <linearGradient id="story-cap" x1=".28" y1=".06" x2=".8" y2=".92">
    <stop offset="0" stop-color="#ffcfb0"/>
    <stop offset=".55" stop-color="#ef8b6d"/>
    <stop offset="1" stop-color="#d76a59"/>
  </linearGradient>
  <radialGradient id="story-window" cx=".5" cy=".5" r=".62">
    <stop offset="0" stop-color="#fff8d3"/>
    <stop offset="1" stop-color="#ffc864"/>
  </radialGradient>
</defs>

  
  <ellipse cx="48" cy="87" rx="24" ry="5" fill="#67453e" opacity=".14"/>
  <path d="M34 46h28v28H34z" rx="10" fill="#fff4e3" stroke="#b58b69" stroke-width="3"/>
  <rect x="43" y="56" width="10" height="18" rx="5" fill="#b98b61"/>
  <circle cx="51" cy="65" r="1.3" fill="#fff1de"/>
  <path d="M16 42c0-15.2 14.5-27 32-27s32 11.8 32 27c0 5.7-4.9 9-12.8 9H28.8C20.9 51 16 47.7 16 42z" fill="url(#story-cap)" stroke="#b76057" stroke-width="3"/>
  <circle cx="33" cy="31" r="4.5" fill="#fff1db"/>
  <circle cx="49" cy="25" r="5.2" fill="#fff1db"/>
  <circle cx="63" cy="33" r="4.2" fill="#fff1db"/>
  <circle cx="28" cy="61" r="7" fill="url(#story-window)" opacity=".78"/>
  <path d="M20 64c7 10 16 15 28 15 13 0 23-5 30-15" fill="none" stroke="#7aae66" stroke-width="4" stroke-linecap="round" opacity=".82"/>
  
</svg>
