<svg xmlns="http://www.w3.org/2000/svg" viewBox="0 0 96 96">
  
<defs>
  <linearGradient id="prairie-post" x1=".5" y1="0" x2=".5" y2="1">
    <stop offset="0" stop-color="#f4f7ff"/>
    <stop offset="1" stop-color="#b9cce8"/>
  </linearGradient>
  <linearGradient id="prairie-leaf" x1=".3" y1=".1" x2=".78" y2=".94">
    <stop offset="0" stop-color="#d6f6be"/>
    <stop offset=".5" stop-color="#85c86d"/>
    <stop offset="1" stop-color="#4a9758"/>
  </linearGradient>
  <radialGradient id="prairie-petal" cx=".45" cy=".32" r=".72">
    <stop offset="0" stop-color="#f8fbff"/>
    <stop offset=".46" stop-color="#8fb8ff"/>
    <stop offset="1" stop-color="#4966db"/>
  </radialGradient>
  <radialGradient id="prairie-firefly" cx=".5" cy=".45" r=".62">
    <stop offset="0" stop-color="#fff8d8"/>
    <stop offset=".6" stop-color="#bce9ff" stop-opacity=".74"/>
    <stop offset="1" stop-color="#bce9ff" stop-opacity="0"/>
  </radialGradient>
</defs>

  
  <ellipse cx="48" cy="89" rx="26" ry="5" fill="#4d6f8a" opacity=".14"/>
  <path d="M24 80c8-13 10-22 10-38M40 80c6-12 7-21 7-35M56 80c2-12 2-22 1-36M70 80c-3-12-5-22-8-34" fill="none" stroke="#5ea267" stroke-width="4" stroke-linecap="round"/>
  <g transform="translate(0 -2)">
    <path d="M25 45c3-7 7-9 11-7-2 3-2 6-1 10-4 0-7-1-10-3z" fill="url(#prairie-petal)" stroke="#4d67d8" stroke-width="2.2" stroke-linejoin="round"/>
    <path d="M33 40c3-6 6-7 10-5-1 3-1 6 0 9-4 0-7-1-10-4z" fill="url(#prairie-petal)" stroke="#4d67d8" stroke-width="2.2" stroke-linejoin="round"/>
    <path d="M41 48c3-7 7-9 11-7-2 3-2 6-1 10-4 0-7-1-10-3z" fill="url(#prairie-petal)" stroke="#4d67d8" stroke-width="2.2" stroke-linejoin="round"/>
    <path d="M51 39c3-6 6-7 10-5-1 3-1 6 0 9-4 0-7-1-10-4z" fill="url(#prairie-petal)" stroke="#4d67d8" stroke-width="2.2" stroke-linejoin="round"/>
    <path d="M61 47c3-7 7-9 11-7-2 3-2 6-1 10-4 0-7-1-10-3z" fill="url(#prairie-petal)" stroke="#4d67d8" stroke-width="2.2" stroke-linejoin="round"/>
  </g>
  <circle cx="36" cy="37" r="2.2" fill="#fff9d8"/>
  <circle cx="58" cy="33" r="2.2" fill="#fff9d8"/>
  <circle cx="69" cy="38" r="2.2" fill="#fff9d8"/>
  
</svg>
