<svg xmlns="http://www.w3.org/2000/svg" viewBox="0 0 64 64">
  
<defs>
  <radialGradient id="songbird-body" cx=".34" cy=".24" r=".92">
    <stop offset="0" stop-color="#ffe8bf"/>
    <stop offset=".54" stop-color="#ffb562"/>
    <stop offset="1" stop-color="#ef7f2a"/>
  </radialGradient>
  <linearGradient id="songbird-wing" x1=".18" y1=".12" x2=".86" y2=".88">
    <stop offset="0" stop-color="#fff2b8"/>
    <stop offset=".55" stop-color="#ffc85c"/>
    <stop offset="1" stop-color="#f0872c"/>
  </linearGradient>
  <linearGradient id="songbird-belly" x1=".5" y1="0" x2=".5" y2="1">
    <stop offset="0" stop-color="#fffef8"/>
    <stop offset="1" stop-color="#ffe7b8"/>
  </linearGradient>
  <linearGradient id="songbird-beak" x1=".3" y1="0" x2=".8" y2="1">
    <stop offset="0" stop-color="#fff5a8"/>
    <stop offset=".58" stop-color="#ffc54d"/>
    <stop offset="1" stop-color="#e89018"/>
  </linearGradient>
  <radialGradient id="songbird-glow" cx=".5" cy=".34" r=".8">
    <stop offset="0" stop-color="#fff8db"/>
    <stop offset=".6" stop-color="#ffe29c" stop-opacity=".54"/>
    <stop offset="1" stop-color="#ffe29c" stop-opacity="0"/>
  </radialGradient>
</defs>

  
    <ellipse cx="31" cy="56" rx="12" ry="4.1" fill="#ffcf8d" opacity=".24"/>
    <circle cx="32" cy="30" r="16" fill="url(#songbird-glow)" opacity=".92"/>
    <path d="M22 43l-8 8 9-2.5 4 4.2 1.5-8.4" fill="#ffd87a" stroke="#d2771f" stroke-width="2" stroke-linejoin="round"/>
    <path d="M25 33c-8 3-13 10-12 17 7 0 13-4 18-9 2-2 4-4 5-7-4-2-7-3-11-1z" fill="url(#songbird-wing)" stroke="#cb7425" stroke-width="2" stroke-linejoin="round"/>
    <ellipse cx="33" cy="33" rx="12.6" ry="12.6" fill="url(#songbird-body)" stroke="#cb7425" stroke-width="2.2"/>
    <ellipse cx="37" cy="38" rx="6.8" ry="5" fill="url(#songbird-belly)"/>
    
      <ellipse cx="39" cy="29" rx="1.7" ry="2.2" fill="#203046"/>
      <circle cx="39.5" cy="28.2" r=".5" fill="#fff"/>
    
    <path d="M36 31 48 27 36 23 31 27z" fill="url(#songbird-beak)" stroke="#cb7425" stroke-width="2" stroke-linejoin="round"/>
    <path d="M36.6 41.6c1.5 1.5 3 1.5 4.5 0" fill="none" stroke="#cb7425" stroke-width="1.7" stroke-linecap="round"/>
  
</svg>
