<svg xmlns="http://www.w3.org/2000/svg" viewBox="0 0 64 64">
  
<defs>
  <radialGradient id="songbird-body" cx=".34" cy=".24" r=".92">
    <stop offset="0" stop-color="#ffe8bf"/>
    <stop offset=".54" stop-color="#ffb562"/>
    <stop offset="1" stop-color="#ef7f2a"/>
  </radialGradient>
  <linearGradient id="songbird-wing" x1=".18" y1=".12" x2=".86" y2=".88">
    <stop offset="0" stop-color="#fff2b8"/>
    <stop offset=".55" stop-color="#ffc85c"/>
    <stop offset="1" stop-color="#f0872c"/>
  </linearGradient>
  <linearGradient id="songbird-belly" x1=".5" y1="0" x2=".5" y2="1">
    <stop offset="0" stop-color="#fffef8"/>
    <stop offset="1" stop-color="#ffe7b8"/>
  </linearGradient>
  <linearGradient id="songbird-beak" x1=".3" y1="0" x2=".8" y2="1">
    <stop offset="0" stop-color="#fff5a8"/>
    <stop offset=".58" stop-color="#ffc54d"/>
    <stop offset="1" stop-color="#e89018"/>
  </linearGradient>
  <radialGradient id="songbird-glow" cx=".5" cy=".34" r=".8">
    <stop offset="0" stop-color="#fff8db"/>
    <stop offset=".6" stop-color="#ffe29c" stop-opacity=".54"/>
    <stop offset="1" stop-color="#ffe29c" stop-opacity="0"/>
  </radialGradient>
</defs>

  
    <ellipse cx="32" cy="56" rx="12" ry="4.2" fill="#ffcf8d" opacity=".24"/>
    <circle cx="32" cy="30" r="17" fill="url(#songbird-glow)" opacity=".72"/>
    <path d="M24 34c-8 4-12 10-12 16 7 1 13-2 19-8 2-2 4-5 5-8-4-2-8-2-12 0z" fill="url(#songbird-wing)" stroke="#cb7425" stroke-width="2.1" stroke-linejoin="round"/>
    <path d="M40 34c8 4 12 10 12 16-7 1-13-2-19-8-2-2-4-5-5-8 4-2 8-2 12 0z" fill="url(#songbird-wing)" stroke="#cb7425" stroke-width="2.1" stroke-linejoin="round"/>
    <ellipse cx="32" cy="33" rx="12.8" ry="12.8" fill="url(#songbird-body)" stroke="#cb7425" stroke-width="2.2"/>
    <ellipse cx="32" cy="38.2" rx="7.2" ry="5.2" fill="url(#songbird-belly)"/>
    <path d="M29 45l-2.4 7 5.4-2.6 5.4 2.6-2.4-7" fill="#ffd87a" stroke="#d2771f" stroke-width="2" stroke-linejoin="round"/>
    
      <ellipse cx="29.2" cy="29" rx="1.6" ry="2.2" fill="#203046"/>
      <ellipse cx="38.8" cy="29" rx="1.6" ry="2.2" fill="#203046"/>
      <circle cx="29.6" cy="28.2" r=".5" fill="#fff"/>
      <circle cx="39.2" cy="28.2" r=".5" fill="#fff"/>
    
    <path d="M32 32 42 28 32 24 22 28z" fill="url(#songbird-beak)" stroke="#cb7425" stroke-width="2" stroke-linejoin="round"/>
    <path d="M29.6 41.8c1.6 1.6 3.2 1.6 4.8 0" fill="none" stroke="#cb7425" stroke-width="1.7" stroke-linecap="round"/>
    <path d="M25 19c2-2.3 4.2-3.4 7-3.4 3 0 5.5 1.1 7.2 3.4" fill="none" stroke="#fff5c4" stroke-width="2" stroke-linecap="round" opacity=".78"/>
    
    
</svg>
